<?xml version="1.0" encoding="UTF-8" standalone="no"?>
<svg
   xmlns:dc="http://purl.org/dc/elements/1.1/"
   xmlns:cc="http://creativecommons.org/ns#"
   xmlns:rdf="http://www.w3.org/1999/02/22-rdf-syntax-ns#"
   xmlns:svg="http://www.w3.org/2000/svg"
   xmlns="http://www.w3.org/2000/svg"
   xmlns:sodipodi="http://sodipodi.sourceforge.net/DTD/sodipodi-0.dtd"
   xmlns:inkscape="http://www.inkscape.org/namespaces/inkscape"
   height="270"
   width="2600"
   id="svg3009"
   version="1.1"
   viewBox="-22.97106 -24.6679 431.34546 49.952495"
   sodipodi:docname="Julia-for-Machine-Learning-logo.svg"
   inkscape:version="0.92.5 (2060ec1f9f, 2020-04-08)">
  <metadata
     id="metadata27">
    <rdf:RDF>
      <cc:Work
         rdf:about="">
        <dc:format>image/svg+xml</dc:format>
        <dc:type
           rdf:resource="http://purl.org/dc/dcmitype/StillImage" />
        <dc:title></dc:title>
      </cc:Work>
    </rdf:RDF>
  </metadata>
  <sodipodi:namedview
     pagecolor="#ffffff"
     bordercolor="#666666"
     borderopacity="1"
     objecttolerance="10"
     gridtolerance="10"
     guidetolerance="10"
     inkscape:pageopacity="0"
     inkscape:pageshadow="2"
     inkscape:window-width="3840"
     inkscape:window-height="1952"
     id="namedview25"
     showgrid="false"
     fit-margin-top="0"
     fit-margin-left="0"
     fit-margin-right="0"
     fit-margin-bottom="0"
     inkscape:zoom="0.81788686"
     inkscape:cx="1571.4061"
     inkscape:cy="194.8306"
     inkscape:window-x="0"
     inkscape:window-y="54"
     inkscape:window-maximized="1"
     inkscape:current-layer="svg3009" />
  <defs
     id="defs2985">
    <style
       id="style2983">.cls-1{fill:#1a1a1a}</style>
  </defs>
  <g
     id="g1231">
    <flowRoot
       transform="matrix(0.18500925,0,0,0.18500925,88.80625,-127.9155)"
       style="font-style:normal;font-variant:normal;font-weight:normal;font-stretch:normal;font-size:40px;line-height:1.25;font-family:'Tamil MN';-inkscape-font-specification:'Tamil MN';letter-spacing:0px;word-spacing:0px;fill:#000000;fill-opacity:1;stroke:none"
       id="flowRoot29"
       xml:space="preserve"><flowRegion
         style="font-style:normal;font-variant:normal;font-weight:normal;font-stretch:normal;font-family:'Tamil MN';-inkscape-font-specification:'Tamil MN'"
         id="flowRegion31"><rect
           style="font-style:normal;font-variant:normal;font-weight:normal;font-stretch:normal;font-family:'Tamil MN';-inkscape-font-specification:'Tamil MN'"
           y="-652.44958"
           x="-1289.9136"
           height="636.31122"
           width="1047.8386"
           id="rect33" /></flowRegion><flowPara
         id="flowPara35" /></flowRoot>    <path
       d="m 16.095758,-6.2501523 a 3.6572138,3.6572138 0 1 1 3.661335,-3.6572183 3.661323,3.661323 0 0 1 -3.661335,3.6572183 z"
       id="path13-3"
       inkscape:connector-curvature="0"
       style="fill:#ca3c32;stroke-width:0.41092291" />
    <path
       d="m 24.885408,-6.2501523 a 3.6572138,3.6572138 0 1 1 3.661336,-3.6572183 3.661323,3.661323 0 0 1 -3.661336,3.6572183 z"
       id="path25-5"
       inkscape:connector-curvature="0"
       style="fill:#9259a3;stroke-width:0.41092291" />
    <path
       d="m 20.492643,-13.864563 a 3.6572138,3.6572138 0 1 1 3.657215,-3.657219 3.6531046,3.6531046 0 0 1 -3.657215,3.657219 z"
       id="path31-6"
       inkscape:connector-curvature="0"
       style="fill:#399746;stroke-width:0.41092291" />
    <flowRoot
       transform="matrix(0.18500924,0,0,0.18500924,-78.600201,-116.44477)"
       style="font-style:normal;font-variant:normal;font-weight:normal;font-stretch:normal;font-size:40px;line-height:1.25;font-family:MN;-inkscape-font-specification:MN;letter-spacing:0px;word-spacing:0px;fill:#000000;fill-opacity:1;stroke:none"
       id="flowRoot1011"
       xml:space="preserve"><flowRegion
         id="flowRegion1013"><rect
           y="595.3894"
           x="70.893372"
           height="382.13257"
           width="658.78961"
           id="rect1015" /></flowRegion><flowPara
         id="flowPara1017"></flowPara></flowRoot>    <path
       inkscape:connector-curvature="0"
       id="path1099"
       d="m -22.117696,14.02987 q 0,2.41138 -0.556472,3.87844 -0.539611,1.48393 -1.534516,2.29335 -0.994906,0.82628 -2.394521,1.09608 -1.399614,0.28667 -3.102759,0.28667 -1.146672,0 -2.040402,-0.20235 -0.89373,-0.18549 -1.500791,-0.52275 -0.607062,-0.33726 -0.910592,-0.79255 -0.320393,-0.43844 -0.320393,-0.92746 0,-0.86 0.674512,-1.43334 0.674512,-0.57334 1.838048,-0.57334 0.438433,0 0.792552,0.13491 0.337257,0.1349 0.607062,0.33725 0.269804,0.21922 0.489022,0.4553 0.202354,0.25294 0.354118,0.47216 0.387846,0.50588 0.640787,0.67451 0.269807,0.16863 0.489022,0.16863 0.23608,0 0.421572,-0.11804 0.18549,-0.11804 0.30353,-0.42157 0.118039,-0.30353 0.168628,-0.80942 0.06745,-0.50588 0.06745,-1.29843 V -3.0858983 l 5.51414,-1.517653 z"
       style="font-style:normal;font-variant:normal;font-weight:normal;font-stretch:normal;font-size:186.66667175px;line-height:1.25;font-family:'Tamil MN';-inkscape-font-specification:'Tamil MN';letter-spacing:0px;word-spacing:0px;fill:#000000;fill-opacity:1;stroke:none;stroke-width:0.18500924" />
    <path
       inkscape:connector-curvature="0"
       id="path1027"
       d="m -28.56565,-9.7782596 q 0,-0.6876724 0.270902,-1.2919914 0.291739,-0.604318 0.791866,-1.041928 0.500126,-0.458449 1.16696,-0.708512 0.666835,-0.270901 1.417025,-0.270901 0.750189,0 1.417022,0.270901 0.666834,0.250063 1.16696,0.708512 0.500126,0.43761 0.791865,1.041928 0.29174,0.604319 0.29174,1.2919914 0,0.687675 -0.29174,1.291994 -0.291739,0.6043174 -0.791865,1.0419284 -0.500126,0.43761 -1.16696,0.708513 -0.666833,0.250063 -1.417022,0.250063 -0.75019,0 -1.417025,-0.250063 -0.666834,-0.270903 -1.16696,-0.708513 -0.500127,-0.437611 -0.791866,-1.0419284 -0.270902,-0.604319 -0.270902,-1.291994 z"
       style="font-style:normal;font-variant:normal;font-weight:normal;font-stretch:normal;font-size:186.66667175px;line-height:1.25;font-family:'Tamil MN';-inkscape-font-specification:'Tamil MN';letter-spacing:0px;word-spacing:0px;fill:#4d64ae;fill-opacity:1;stroke:none;stroke-width:0.22862896" />
    <path
       d="M -12.252945,-4.0639423 V 8.6843508 q 0,0.53961 0.202354,1.01177 0.219215,0.4553002 0.573335,0.7925502 0.37098,0.33726 0.84314,0.53961 0.489021,0.20236 1.0286304,0.20236 0.303532,0 0.691376,-0.16863 0.3878459,-0.16863 0.7756899,-0.47216 0.404708,-0.30353 0.77569,-0.7082402 0.387844,-0.40471 0.691376,-0.89373 V -4.0639423 h 5.4972799 V 14.02987 h -5.4972799 v -1.686289 q -1.07922,0.92746 -2.3102069,1.483929 -1.2141234,0.53961 -2.3776554,0.53961 -1.349024,0 -2.512559,-0.43843 -1.163536,-0.455299 -2.023538,-1.214119 -0.860005,-0.77569 -1.349027,-1.80433 -0.489022,-1.0454902 -0.489022,-2.2258902 V -4.0639423 Z"
       id="path1029"
       inkscape:connector-curvature="0"
       style="font-style:normal;font-variant:normal;font-weight:normal;font-stretch:normal;font-size:186.66667175px;line-height:1.25;font-family:'Tamil MN';-inkscape-font-specification:'Tamil MN';letter-spacing:0px;word-spacing:0px;fill:#000000;fill-opacity:1;stroke:none;stroke-width:0.18500924" />
    <path
       d="M 8.656953,14.02987 H 3.210262 v -25.378552 l 5.446691,-1.517653 z"
       id="path1031"
       inkscape:connector-curvature="0"
       style="font-style:normal;font-variant:normal;font-weight:normal;font-stretch:normal;font-size:186.66667175px;line-height:1.25;font-family:'Tamil MN';-inkscape-font-specification:'Tamil MN';letter-spacing:0px;word-spacing:0px;fill:#000000;fill-opacity:1;stroke:none;stroke-width:0.18500924" />
    <path
       inkscape:connector-curvature="0"
       id="path1173"
       d="m 13.445995,-3.0858983 5.480416,-1.517653 V 14.02987 h -5.480416 z"
       style="font-style:normal;font-variant:normal;font-weight:normal;font-stretch:normal;font-size:186.66667175px;line-height:1.25;font-family:'Tamil MN';-inkscape-font-specification:'Tamil MN';letter-spacing:0px;word-spacing:0px;fill:#000000;fill-opacity:1;stroke:none;stroke-width:0.18500924" />
    <path
       d="m 32.484121,4.6710008 q -0.792552,0.33726 -1.601968,0.79255 -0.809415,0.43843 -1.467066,0.97805 -0.65765,0.52274 -1.07922,1.1298 -0.404707,0.5902 -0.404707,1.24785 0,0.52275 0.134901,0.99491 0.134903,0.4553002 0.370982,0.8094202 0.23608,0.33725 0.522748,0.5396 0.303531,0.20236 0.640787,0.20236 0.65765,0 1.349026,-0.40471 0.708239,-0.42157 1.534517,-1.0454902 z m 5.514143,9.3588692 h -5.514143 v -1.450209 q -0.455295,0.38785 -0.89373,0.70824 -0.438433,0.32039 -0.978042,0.573339 -0.522749,0.23608 -1.197262,0.37098 -0.674512,0.1349 -1.601967,0.1349 -1.24785,0 -2.25962,-0.35412 -0.994906,-0.354119 -1.703146,-0.978039 -0.691374,-0.64079 -1.062356,-1.50079 -0.370982,-0.86001 -0.370982,-1.8549102 0,-1.0455 0.387844,-1.87178 0.404708,-0.84314 1.079222,-1.51765 0.691375,-0.67451 1.601967,-1.21412 0.927456,-0.53961 1.972951,-0.978046 1.062358,-0.438433 2.192167,-0.809416 1.129808,-0.370982 2.225892,-0.7251009 l 0.607062,-0.134903 V 0.62392382 q 0,-0.860005 -0.185491,-1.467066 -0.168628,-0.60706202 -0.489022,-0.97804402 -0.303531,-0.387844 -0.758826,-0.556473 -0.438433,-0.168628 -0.994908,-0.168628 -0.65765,0 -1.096083,0.168628 -0.438433,0.168629 -0.708238,0.472159 -0.269806,0.286668 -0.387846,0.674514 -0.118039,0.38784402 -0.118039,0.82627702 0,0.522747 -0.11804,0.994907 -0.101176,0.47215908 -0.387844,0.84314108 -0.269806,0.354119 -0.758827,0.573336 -0.47216,0.219216 -1.230987,0.219216 -0.573337,0 -1.062359,-0.168629 -0.472158,-0.18549 -0.809415,-0.489022 -0.337257,-0.320393 -0.539611,-0.74196208 -0.18549,-0.438433 -0.18549,-0.927455 0,-0.94431902 0.640787,-1.73687102 0.640787,-0.8094151 1.720009,-1.3996151 1.096084,-0.590198 2.512561,-0.910592 1.433339,-0.337257 3.018444,-0.337257 1.939225,0 3.33884,0.354119 1.416477,0.354119 2.327068,0.994908 0.910594,0.6407871 1.349027,1.5513781 0.438433,0.91059302 0.438433,2.04040202 z"
       id="path1035"
       inkscape:connector-curvature="0"
       style="font-style:normal;font-variant:normal;font-weight:normal;font-stretch:normal;font-size:186.66667175px;line-height:1.25;font-family:'Tamil MN';-inkscape-font-specification:'Tamil MN';letter-spacing:0px;word-spacing:0px;fill:#000000;fill-opacity:1;stroke:none;stroke-width:0.18500924" />
    <path
       d="m 60.004245,-4.0639423 h 4.519237 v 2.2090311 H 60.004245 V 14.02987 H 54.523829 V -1.8549112 h -3.558057 v -2.2090311 h 3.558057 v -2.074126 q 0,-1.3996149 0.556473,-2.6643253 0.556472,-1.2815764 1.55138,-2.2427564 1.011769,-0.961181 2.377657,-1.534517 1.382752,-0.573336 3.035308,-0.573336 1.382752,0 2.394521,0.269804 1.011769,0.269807 1.652556,0.725102 0.640787,0.438434 0.944319,1.011769 0.320393,0.556474 0.320393,1.1466724 0,0.455297 -0.185492,0.860005 -0.168628,0.404707 -0.489022,0.708237 -0.320393,0.3035324 -0.741963,0.4890224 -0.421571,0.168629 -0.927455,0.168629 -0.691375,0 -1.045496,-0.252943 -0.354119,-0.2698054 -0.539609,-0.6576494 -0.185492,-0.404707 -0.269807,-0.860004 -0.06745,-0.4721604 -0.219215,-0.8600044 -0.134903,-0.404708 -0.404708,-0.657651 -0.252943,-0.269804 -0.809415,-0.269804 -1.720009,0 -1.720009,2.9678574 z"
       id="path1037"
       inkscape:connector-curvature="0"
       style="font-style:normal;font-variant:normal;font-weight:normal;font-stretch:normal;font-size:186.66667175px;line-height:1.25;font-family:'Tamil MN';-inkscape-font-specification:'Tamil MN';letter-spacing:0px;word-spacing:0px;fill:#000000;fill-opacity:1;stroke:none;stroke-width:0.18500924" />
    <path
       d="m 76.293739,14.36712 q -2.158442,0 -3.996488,-0.708239 -1.838049,-0.70824 -3.170211,-1.93922 -1.332163,-1.24785 -2.090992,-2.9341302 -0.741962,-1.68628 -0.741962,-3.62551 0,-2.090989 0.741962,-3.8447209 0.758829,-1.77059808 2.090992,-3.0353081 1.332162,-1.2815761 3.153347,-1.9898141 1.838048,-0.725101 3.996488,-0.725101 2.158442,0 3.99649,0.708238 1.85491,0.691376 3.187073,1.9223621 1.349026,1.23098502 2.107853,2.8835411 0.758826,1.6525589 0.758826,3.5580529 0,2.00668 -0.758826,3.77728 -0.758827,1.7705902 -2.107853,3.1027602 -1.332163,1.31529 -3.170211,2.09098 -1.838046,0.758829 -3.996488,0.758829 z m 0.640787,-2.209029 q 0.758826,0 1.382751,-0.48902 0.640787,-0.48902 1.096084,-1.3153 0.455297,-0.8262802 0.708237,-1.9055002 0.269807,-1.07922 0.269807,-2.25962 0,-1.736868 -0.252943,-3.271384 -0.252943,-1.5345169 -0.843141,-2.68118898 -0.573336,-1.146671 -1.517655,-1.82118502 -0.927455,-0.674512 -2.276481,-0.674512 -0.640787,0 -1.247848,0.489022 -0.590198,0.472158 -1.045495,1.28157402 -0.455297,0.809415 -0.741965,1.87177308 -0.269804,1.062358 -0.269804,2.2258929 0,1.753738 0.320393,3.305108 0.320394,1.55138 0.927455,2.71492 0.623925,1.1635302 1.500791,1.8549102 0.876868,0.67451 1.989814,0.67451 z"
       id="path1039"
       inkscape:connector-curvature="0"
       style="font-style:normal;font-variant:normal;font-weight:normal;font-stretch:normal;font-size:186.66667175px;line-height:1.25;font-family:'Tamil MN';-inkscape-font-specification:'Tamil MN';letter-spacing:0px;word-spacing:0px;fill:#000000;fill-opacity:1;stroke:none;stroke-width:0.18500924" />
    <path
       d="m 95.180099,14.02987 h -5.48042 V -4.0639423 h 5.48042 v 1.349026 q 0.91059,-0.927455 2.00668,-1.500791 1.096071,-0.573336 2.327045,-0.573336 0.741966,0 1.382756,0.202354 0.65765,0.185492 1.1298,0.522747 0.48903,0.337257 0.75883,0.77569 0.28667,0.438435 0.28667,0.9443191 0,0.489022 -0.18549,0.893729 -0.18549,0.387844 -0.52275,0.67451202 -0.32039,0.286669 -0.75883,0.455297 -0.42157,0.151765 -0.91059,0.151765 -0.65765,0 -1.079216,-0.202354 -0.421568,-0.202354 -0.758826,-0.455295 -0.337248,-0.25294202 -0.708226,-0.45529602 -0.35412,-0.202354 -0.876863,-0.202354 -0.26981,0 -0.55647,0.219215 -0.26981,0.202354 -0.53961,0.55647502 -0.26981,0.337255 -0.52275,0.792552 -0.25294,0.455296 -0.47216,0.92745508 z"
       id="path1041"
       inkscape:connector-curvature="0"
       style="font-style:normal;font-variant:normal;font-weight:normal;font-stretch:normal;font-size:186.66667175px;line-height:1.25;font-family:'Tamil MN';-inkscape-font-specification:'Tamil MN';letter-spacing:0px;word-spacing:0px;fill:#000000;fill-opacity:1;stroke:none;stroke-width:0.18500924" />
    <path
       d="m 115.71897,-9.9827916 h 5.73336 l 8.29652,16.4075224 8.19531,-16.4075224 h 5.61533 V 14.02987 h -5.88513 V -1.6188322 L 129.83315,14.02987 h -2.27648 L 119.44565,-1.8043232 V 14.02987 h -3.72668 z"
       id="path1043"
       inkscape:connector-curvature="0"
       style="font-style:normal;font-variant:normal;font-weight:normal;font-stretch:normal;font-size:186.66667175px;line-height:1.25;font-family:'Tamil MN';-inkscape-font-specification:'Tamil MN';letter-spacing:0px;word-spacing:0px;fill:#000000;fill-opacity:1;stroke:none;stroke-width:0.18500924" />
    <path
       d="m 157.58935,4.6710008 q -0.79254,0.33726 -1.60196,0.79255 -0.80941,0.43843 -1.46707,0.97805 -0.65765,0.52274 -1.07923,1.1298 -0.40471,0.5902 -0.40471,1.24785 0,0.52275 0.13491,0.99491 0.13491,0.4553002 0.37098,0.8094202 0.23609,0.33725 0.52275,0.5396 0.30354,0.20236 0.64079,0.20236 0.65766,0 1.34902,-0.40471 0.70825,-0.42157 1.53452,-1.0454902 z m 5.51414,9.3588692 h -5.51414 v -1.450209 q -0.45529,0.38785 -0.89372,0.70824 -0.43844,0.32039 -0.97806,0.573339 -0.52274,0.23608 -1.19725,0.37098 -0.67452,0.1349 -1.60197,0.1349 -1.24785,0 -2.25961,-0.35412 -0.99491,-0.354119 -1.70314,-0.978039 -0.69138,-0.64079 -1.06236,-1.50079 -0.37098,-0.86001 -0.37098,-1.8549102 0,-1.0455 0.38783,-1.87178 0.40471,-0.84314 1.07922,-1.51765 0.69138,-0.67451 1.60197,-1.21412 0.92745,-0.53961 1.97296,-0.978046 1.06234,-0.438433 2.19216,-0.809416 1.12981,-0.370982 2.2259,-0.7251009 l 0.60705,-0.134903 V 0.62392382 q 0,-0.860005 -0.18549,-1.467066 -0.16862,-0.60706202 -0.48902,-0.97804402 -0.30352,-0.387844 -0.75883,-0.556473 -0.43844,-0.168628 -0.99491,-0.168628 -0.65765,0 -1.09608,0.168628 -0.43844,0.168629 -0.70824,0.472159 -0.2698,0.286668 -0.38783,0.674514 -0.11806,0.38784402 -0.11806,0.82627702 0,0.522747 -0.11803,0.994907 -0.10118,0.47215908 -0.38784,0.84314108 -0.26981,0.354119 -0.75883,0.573336 -0.47216,0.219216 -1.23098,0.219216 -0.57334,0 -1.06236,-0.168629 -0.47216,-0.18549 -0.80941,-0.489022 -0.33726,-0.320393 -0.53962,-0.74196208 -0.18549,-0.438433 -0.18549,-0.927455 0,-0.94431902 0.64078,-1.73687102 0.6408,-0.8094151 1.72001,-1.3996151 1.09609,-0.590198 2.51256,-0.910592 1.43334,-0.337257 3.01844,-0.337257 1.93923,0 3.33884,0.354119 1.41649,0.354119 2.32709,0.994908 0.91058,0.6407871 1.34901,1.5513781 0.43843,0.91059302 0.43843,2.04040202 z"
       id="path1045"
       inkscape:connector-curvature="0"
       style="font-style:normal;font-variant:normal;font-weight:normal;font-stretch:normal;font-size:186.66667175px;line-height:1.25;font-family:'Tamil MN';-inkscape-font-specification:'Tamil MN';letter-spacing:0px;word-spacing:0px;fill:#000000;fill-opacity:1;stroke:none;stroke-width:0.18500924" />
    <path
       d="m 176.40827,-2.2258942 q -0.87687,0 -1.60196,0.438433 -0.70825,0.438433 -1.21412,1.19726202 -0.50589,0.741962 -0.77571,1.73687008 -0.2698,0.978044 -0.2698,2.0741279 0,1.517652 0.33725,2.900402 0.35413,1.38275 0.97806,2.44511 0.62392,1.0455 1.50079,1.6694202 0.89372,0.62393 1.98981,0.62393 0.9106,0 1.63569,-0.37099 0.74196,-0.37098 1.33216,-0.9949002 0.60707,-0.64079 1.07923,-1.48393 0.48902,-0.84314 0.9106,-1.78746 l 2.61373,0.69137 q -0.45531,1.7706 -1.26472,3.1702202 -0.80942,1.38275 -1.93923,2.34393 -1.11294,0.94432 -2.54628,1.450199 -1.41647,0.48902 -3.0859,0.48902 -1.87176,0 -3.52432,-0.708239 -1.6357,-0.7251 -2.86668,-1.95608 -1.21412,-1.23099 -1.92237,-2.8666802 -0.70824,-1.6357 -0.70824,-3.47374 0,-2.006681 0.75884,-3.7772769 0.75881,-1.78745908 2.05726,-3.1196221 1.29843,-1.3490261 3.05217,-2.1247161 1.75373,-0.775689 3.72668,-0.775689 1.66941,0 3.01845,0.337255 1.34903,0.337258 2.29333,0.944319 0.96118,0.6070621 1.46707,1.4333411 0.52275,0.82627702 0.52275,1.78745702 0,0.455297 -0.2698,0.86000504 -0.2698,0.40470704 -0.70824,0.72510104 -0.43843,0.303531 -1.01178,0.489022 -0.55647,0.168628 -1.12979,0.168628 -0.65765,0 -1.14669,-0.18549 -0.48902,-0.185492 -0.82627,-0.47216 -0.33725,-0.30353 -0.50589,-0.69137604 -0.16862,-0.38784404 -0.16862,-0.79255204 0,-0.404708 -0.0337,-0.826279 -0.0337,-0.43843302 -0.20237,-0.77568802 -0.16861,-0.354121 -0.53959,-0.573336 -0.35413,-0.219218 -1.01178,-0.219218 z"
       id="path1047"
       inkscape:connector-curvature="0"
       style="font-style:normal;font-variant:normal;font-weight:normal;font-stretch:normal;font-size:186.66667175px;line-height:1.25;font-family:'Tamil MN';-inkscape-font-specification:'Tamil MN';letter-spacing:0px;word-spacing:0px;fill:#000000;fill-opacity:1;stroke:none;stroke-width:0.18500924" />
    <path
       d="m 199.45975,1.6356929 q 0,-1.39961508 -0.4553,-2.12471608 -0.45529,-0.74196302 -1.1804,-0.74196302 -0.33725,0 -0.82627,0.151765 -0.47216,0.13490102 -1.02863,0.40470702 -0.53962,0.269805 -1.09609,0.640787 -0.55647,0.354119 -1.02863,0.77569 V 14.02987 h -5.54788 v -25.378552 l 5.54788,-1.517653 v 10.2188717 q 1.2647,-0.927457 2.8161,-1.36589 1.55137,-0.455297 3.01844,-0.455297 1.09607,0 2.05727,0.438435 0.97803,0.438433 1.68626,1.19726 0.72511,0.7419641 1.12982,1.7537341 0.42158,1.01176902 0.42158,2.1584391 V 14.02987 h -5.51415 z"
       id="path1049"
       inkscape:connector-curvature="0"
       style="font-style:normal;font-variant:normal;font-weight:normal;font-stretch:normal;font-size:186.66667175px;line-height:1.25;font-family:'Tamil MN';-inkscape-font-specification:'Tamil MN';letter-spacing:0px;word-spacing:0px;fill:#000000;fill-opacity:1;stroke:none;stroke-width:0.18500924" />
    <path
       inkscape:connector-curvature="0"
       id="path1177"
       d="m 209.50999,-3.0858983 5.48042,-1.517653 V 14.02987 h -5.48042 z"
       style="font-style:normal;font-variant:normal;font-weight:normal;font-stretch:normal;font-size:186.66667175px;line-height:1.25;font-family:'Tamil MN';-inkscape-font-specification:'Tamil MN';letter-spacing:0px;word-spacing:0px;fill:#000000;fill-opacity:1;stroke:none;stroke-width:0.18500924" />
    <path
       inkscape:connector-curvature="0"
       id="path1051"
       d="m 208.5762,-9.7782596 q 0,-0.6876724 0.27091,-1.2919914 0.29172,-0.604319 0.79185,-1.041929 0.50012,-0.458448 1.16697,-0.708511 0.66684,-0.270901 1.41702,-0.270901 0.7502,0 1.41702,0.270901 0.66683,0.250063 1.16696,0.708511 0.50013,0.43761 0.79186,1.041929 0.29175,0.604319 0.29175,1.2919914 0,0.687675 -0.29175,1.291994 -0.29173,0.6043174 -0.79186,1.0419284 -0.50013,0.43761 -1.16696,0.708513 -0.66682,0.250063 -1.41702,0.250063 -0.75018,0 -1.41702,-0.250063 -0.66685,-0.270903 -1.16697,-0.708513 -0.50013,-0.437611 -0.79185,-1.0419284 -0.27091,-0.604319 -0.27091,-1.291994 z"
       style="font-style:normal;font-variant:normal;font-weight:normal;font-stretch:normal;font-size:186.66667175px;line-height:1.25;font-family:'Tamil MN';-inkscape-font-specification:'Tamil MN';letter-spacing:0px;word-spacing:0px;fill:#399746;fill-opacity:1;stroke:none;stroke-width:0.22862896" />
    <path
       d="m 230.74028,1.6356929 q 0,-0.69137604 -0.15176,-1.23098708 -0.15176,-0.539611 -0.40471,-0.893729 -0.25294,-0.370983 -0.5902,-0.55647302 -0.32039,-0.18549 -0.6745,-0.18549 -0.35413,0 -0.82629,0.151765 -0.45529,0.13490102 -0.96118,0.40470702 -0.50589,0.252943 -1.02863,0.623924 -0.52275,0.370982 -1.01176,0.826279 V 14.02987 H 219.5771 V -4.0639423 h 5.51415 v 1.416479 q 1.2647,-0.927457 2.71492,-1.349027 1.45019,-0.438433 2.90039,-0.438433 1.11296,0 2.10786,0.438433 1.01176,0.42157 1.75372,1.180398 0.75884,0.7419631 1.19727,1.7537321 0.45529,0.99490802 0.45529,2.1415781 V 14.02987 h -5.48042 z"
       id="path1053"
       inkscape:connector-curvature="0"
       style="font-style:normal;font-variant:normal;font-weight:normal;font-stretch:normal;font-size:186.66667175px;line-height:1.25;font-family:'Tamil MN';-inkscape-font-specification:'Tamil MN';letter-spacing:0px;word-spacing:0px;fill:#000000;fill-opacity:1;stroke:none;stroke-width:0.18500924" />
    <path
       d="m 248.90153,14.43457 q -1.93923,0 -3.64237,-0.70824 -1.68628,-0.725099 -2.95099,-1.939219 -1.26472,-1.21412 -1.98981,-2.8160902 -0.72511,-1.61883 -0.72511,-3.40629 0,-2.141579 0.67451,-3.9627629 0.67452,-1.83804908 1.9055,-3.1702111 1.231,-1.3490271 2.96786,-2.1078531 1.73687,-0.758827 3.86159,-0.758827 1.88863,0 3.45688,0.607062 1.5851,0.590198 2.69805,1.6525561 1.12981,1.045495 1.75374,2.46197202 0.62392,1.39961308 0.62392,3.01844598 h -12.54594 q 0.0506,1.500788 0.42156,2.866678 0.38786,1.36589 1.02864,2.41138 0.64079,1.0455 1.50079,1.6694202 0.86,0.60707 1.9055,0.60707 0.91058,0 1.78745,-0.30354 0.87687,-0.32039 1.61883,-0.8600002 0.74198,-0.55647 1.28158,-1.28157 0.53962,-0.72511 0.79256,-1.53452 l 2.81608,0.42157 q -0.42156,1.46707 -1.36588,2.7655002 -0.92745,1.29844 -2.1753,2.27648 -1.24786,0.96118 -2.73178,1.534519 -1.46707,0.55647 -2.96786,0.55647 z m 2.32706,-13.0012311 q -0.0675,-0.80941508 -0.3541,-1.46706608 -0.26982,-0.65765 -0.70826,-1.12980902 -0.42156,-0.472158 -0.9949,-0.725101 -0.55647,-0.269806 -1.21412,-0.269806 -0.50587,0 -0.99491,0.252943 -0.48902,0.252942 -0.89372,0.725101 -0.40471,0.47216002 -0.69138,1.14667202 -0.2698,0.657651 -0.35411,1.46706608 z"
       id="path1055"
       inkscape:connector-curvature="0"
       style="font-style:normal;font-variant:normal;font-weight:normal;font-stretch:normal;font-size:186.66667175px;line-height:1.25;font-family:'Tamil MN';-inkscape-font-specification:'Tamil MN';letter-spacing:0px;word-spacing:0px;fill:#000000;fill-opacity:1;stroke:none;stroke-width:0.18500924" />
    <path
       d="m 272.0542,-9.9827916 h 5.88512 V 11.567891 h 12.25927 V 14.02987 H 272.0542 Z"
       id="path1057"
       inkscape:connector-curvature="0"
       style="font-style:normal;font-variant:normal;font-weight:normal;font-stretch:normal;font-size:186.66667175px;line-height:1.25;font-family:'Tamil MN';-inkscape-font-specification:'Tamil MN';letter-spacing:0px;word-spacing:0px;fill:#000000;fill-opacity:1;stroke:none;stroke-width:0.18500924" />
    <path
       d="m 301.61471,14.43457 q -1.93923,0 -3.64237,-0.70824 -1.68628,-0.725099 -2.95099,-1.939219 -1.26472,-1.21412 -1.98981,-2.8160902 -0.7251,-1.61883 -0.7251,-3.40629 0,-2.141579 0.6745,-3.9627629 0.67451,-1.83804908 1.90551,-3.1702111 1.23097,-1.3490271 2.96786,-2.1078531 1.73687,-0.758827 3.86159,-0.758827 1.88863,0 3.45687,0.607062 1.58511,0.590198 2.69805,1.6525561 1.12981,1.045495 1.75374,2.46197202 0.62392,1.39961308 0.62392,3.01844598 h -12.54595 q 0.0506,1.500788 0.42158,2.866678 0.38783,1.36589 1.02863,2.41138 0.64078,1.0455 1.5008,1.6694202 0.85999,0.60707 1.90548,0.60707 0.9106,0 1.78747,-0.30354 0.87687,-0.32039 1.61883,-0.8600002 0.74196,-0.55647 1.28157,-1.28157 0.53962,-0.72511 0.79255,-1.53452 l 2.8161,0.42157 q -0.42156,1.46707 -1.36589,2.7655002 -0.92745,1.29844 -2.1753,2.27648 -1.24785,0.96118 -2.73179,1.534519 -1.46705,0.55647 -2.96785,0.55647 z m 2.32707,-13.0012311 q -0.0675,-0.80941508 -0.35413,-1.46706608 -0.2698,-0.65765 -0.70823,-1.12980902 -0.42156,-0.472158 -0.99491,-0.725101 -0.55647,-0.269806 -1.21412,-0.269806 -0.50589,0 -0.99491,0.252943 -0.48901,0.252942 -0.89372,0.725101 -0.40471,0.47216002 -0.69138,1.14667202 -0.2698,0.657651 -0.35413,1.46706608 z"
       id="path1059"
       inkscape:connector-curvature="0"
       style="font-style:normal;font-variant:normal;font-weight:normal;font-stretch:normal;font-size:186.66667175px;line-height:1.25;font-family:'Tamil MN';-inkscape-font-specification:'Tamil MN';letter-spacing:0px;word-spacing:0px;fill:#000000;fill-opacity:1;stroke:none;stroke-width:0.18500924" />
    <path
       d="m 323.19913,4.6710008 q -0.79254,0.33726 -1.60196,0.79255 -0.80941,0.43843 -1.46706,0.97805 -0.65766,0.52274 -1.07922,1.1298 -0.40471,0.5902 -0.40471,1.24785 0,0.52275 0.13489,0.99491 0.13491,0.4553002 0.37098,0.8094202 0.23609,0.33725 0.52277,0.5396 0.30352,0.20236 0.64078,0.20236 0.65765,0 1.34903,-0.40471 0.70823,-0.42157 1.5345,-1.0454902 z m 5.51415,9.3588692 h -5.51415 v -1.450209 q -0.45529,0.38785 -0.89372,0.70824 -0.43844,0.32039 -0.97805,0.573339 -0.52275,0.23608 -1.19725,0.37098 -0.67451,0.1349 -1.60198,0.1349 -1.24785,0 -2.25961,-0.35412 -0.99491,-0.354119 -1.70314,-0.978039 -0.69138,-0.64079 -1.06236,-1.50079 -0.37098,-0.86001 -0.37098,-1.8549102 0,-1.0455 0.38783,-1.87178 0.40471,-0.84314 1.07924,-1.51765 0.69136,-0.67451 1.60195,-1.21412 0.92746,-0.53961 1.97296,-0.978046 1.06236,-0.438433 2.19216,-0.809416 1.12981,-0.370982 2.2259,-0.7251009 l 0.60705,-0.134903 V 0.62392382 q 0,-0.860005 -0.18549,-1.467066 -0.16862,-0.60706202 -0.48902,-0.97804402 -0.30352,-0.387844 -0.75883,-0.556473 -0.43843,-0.168628 -0.9949,-0.168628 -0.65766,0 -1.09607,0.168628 -0.43844,0.168629 -0.70826,0.472159 -0.26979,0.286668 -0.38783,0.674514 -0.11804,0.38784402 -0.11804,0.82627702 0,0.522747 -0.11805,0.994907 -0.10116,0.47215908 -0.38784,0.84314108 -0.26981,0.354119 -0.75883,0.573336 -0.47216,0.219216 -1.23098,0.219216 -0.57334,0 -1.06236,-0.168629 -0.47216,-0.18549 -0.80941,-0.489022 -0.33726,-0.320393 -0.53962,-0.74196208 -0.18549,-0.438433 -0.18549,-0.927455 0,-0.94431902 0.6408,-1.73687102 0.64078,-0.8094151 1.71999,-1.3996151 1.09609,-0.590198 2.51258,-0.910592 1.43334,-0.337257 3.01844,-0.337257 1.93921,0 3.33883,0.354119 1.41648,0.354119 2.32708,0.994908 0.91058,0.6407871 1.34901,1.5513781 0.43844,0.91059302 0.43844,2.04040202 z"
       id="path1061"
       inkscape:connector-curvature="0"
       style="font-style:normal;font-variant:normal;font-weight:normal;font-stretch:normal;font-size:186.66667175px;line-height:1.25;font-family:'Tamil MN';-inkscape-font-specification:'Tamil MN';letter-spacing:0px;word-spacing:0px;fill:#000000;fill-opacity:1;stroke:none;stroke-width:0.18500924" />
    <path
       d="m 338.99959,14.02987 h -5.48042 V -4.0639423 h 5.48042 v 1.349026 q 0.91059,-0.927455 2.00666,-1.500791 1.09609,-0.573336 2.32709,-0.573336 0.74196,0 1.38274,0.202354 0.65765,0.185492 1.12981,0.522747 0.48902,0.337257 0.75883,0.77569 0.28666,0.438435 0.28666,0.9443191 0,0.489022 -0.18549,0.893729 -0.18549,0.387844 -0.52275,0.67451202 -0.32038,0.286669 -0.75881,0.455297 -0.42158,0.151765 -0.9106,0.151765 -0.65765,0 -1.07923,-0.202354 -0.42156,-0.202354 -0.75882,-0.455295 -0.33725,-0.25294202 -0.70823,-0.45529602 -0.35413,-0.202354 -0.87687,-0.202354 -0.26982,0 -0.55647,0.219215 -0.26982,0.202354 -0.53962,0.55647502 -0.2698,0.337255 -0.52274,0.792552 -0.25295,0.455296 -0.47216,0.92745508 z"
       id="path1063"
       inkscape:connector-curvature="0"
       style="font-style:normal;font-variant:normal;font-weight:normal;font-stretch:normal;font-size:186.66667175px;line-height:1.25;font-family:'Tamil MN';-inkscape-font-specification:'Tamil MN';letter-spacing:0px;word-spacing:0px;fill:#000000;fill-opacity:1;stroke:none;stroke-width:0.18500924" />
    <path
       d="m 360.16242,1.6356929 q 0,-0.69137604 -0.15176,-1.23098708 -0.15176,-0.539611 -0.40471,-0.893729 -0.25294,-0.370983 -0.5902,-0.55647302 -0.32039,-0.18549 -0.6745,-0.18549 -0.35413,0 -0.82629,0.151765 -0.45529,0.13490102 -0.96118,0.40470702 -0.50589,0.252943 -1.02863,0.623924 -0.52275,0.370982 -1.01176,0.826279 V 14.02987 h -5.51415 V -4.0639423 h 5.51415 v 1.416479 q 1.2647,-0.927457 2.7149,-1.349027 1.45021,-0.438433 2.90041,-0.438433 1.11296,0 2.10786,0.438433 1.01176,0.42157 1.75372,1.180398 0.75884,0.7419631 1.19727,1.7537321 0.45529,0.99490802 0.45529,2.1415781 V 14.02987 h -5.48042 z"
       id="path1065"
       inkscape:connector-curvature="0"
       style="font-style:normal;font-variant:normal;font-weight:normal;font-stretch:normal;font-size:186.66667175px;line-height:1.25;font-family:'Tamil MN';-inkscape-font-specification:'Tamil MN';letter-spacing:0px;word-spacing:0px;fill:#000000;fill-opacity:1;stroke:none;stroke-width:0.18500924" />
    <path
       inkscape:connector-curvature="0"
       id="path1181"
       d="m 370.26328,-3.0858983 5.48042,-1.517653 V 14.02987 h -5.48042 z"
       style="font-style:normal;font-variant:normal;font-weight:normal;font-stretch:normal;font-size:186.66667175px;line-height:1.25;font-family:'Tamil MN';-inkscape-font-specification:'Tamil MN';letter-spacing:0px;word-spacing:0px;fill:#000000;fill-opacity:1;stroke:none;stroke-width:0.18500924" />
    <path
       inkscape:connector-curvature="0"
       id="path1067"
       d="m 369.32944,-9.7782596 q 0,-0.6876724 0.27091,-1.2919914 0.29172,-0.604319 0.79185,-1.041929 0.50012,-0.458448 1.16697,-0.708511 0.66684,-0.270901 1.41702,-0.270901 0.7502,0 1.41702,0.270901 0.66683,0.250063 1.16696,0.708511 0.50013,0.43761 0.79186,1.041929 0.29175,0.604319 0.29175,1.2919914 0,0.687675 -0.29175,1.291994 -0.29173,0.6043174 -0.79186,1.0419284 -0.50013,0.43761 -1.16696,0.708513 -0.66682,0.250063 -1.41702,0.250063 -0.75018,0 -1.41702,-0.250063 -0.66685,-0.270903 -1.16697,-0.708513 -0.50013,-0.437611 -0.79185,-1.0419284 -0.27091,-0.604319 -0.27091,-1.291994 z"
       style="font-style:normal;font-variant:normal;font-weight:normal;font-stretch:normal;font-size:186.66667175px;line-height:1.25;font-family:'Tamil MN';-inkscape-font-specification:'Tamil MN';letter-spacing:0px;word-spacing:0px;fill:#9259a3;fill-opacity:1;stroke:none;stroke-width:0.22862896" />
    <path
       d="m 391.49357,1.6356929 q 0,-0.69137604 -0.15176,-1.23098708 -0.15176,-0.539611 -0.40471,-0.893729 -0.25294,-0.370983 -0.5902,-0.55647302 -0.3204,-0.18549 -0.6745,-0.18549 -0.35413,0 -0.82629,0.151765 -0.45529,0.13490102 -0.96118,0.40470702 -0.50587,0.252943 -1.02863,0.623924 -0.52275,0.370982 -1.01176,0.826279 V 14.02987 h -5.51415 V -4.0639423 h 5.51415 v 1.416479 q 1.2647,-0.927457 2.71491,-1.349027 1.4502,-0.438433 2.90039,-0.438433 1.11296,0 2.10787,0.438433 1.01176,0.42157 1.75372,1.180398 0.75884,0.7419631 1.19727,1.7537321 0.45529,0.99490802 0.45529,2.1415781 V 14.02987 h -5.48042 z"
       id="path1069"
       inkscape:connector-curvature="0"
       style="font-style:normal;font-variant:normal;font-weight:normal;font-stretch:normal;font-size:186.66667175px;line-height:1.25;font-family:'Tamil MN';-inkscape-font-specification:'Tamil MN';letter-spacing:0px;word-spacing:0px;fill:#000000;fill-opacity:1;stroke:none;stroke-width:0.18500924" />
    <path
       d="m 421.20585,-2.8666813 v 1.90549912 h -3.32197 q 0.43844,0.674512 0.70824,1.450203 0.26979,0.77569008 0.26979,1.68628108 0,1.5007909 -0.69136,2.6811889 -0.67452,1.1804 -1.9055,1.98981 -1.23099,0.80942 -2.95099,1.24785 -1.70316,0.42157 -3.77728,0.42157 -0.59019,0 -1.23097,-0.0674 -0.6408,-0.0843 -1.16355,-0.18549 -0.35412,0.28667 -0.57334,0.69138 -0.20234,0.38784 -0.20234,0.82628 0,0.1349 0.0675,0.2529402 0.0843,0.11804 0.37098,0.23608 0.28667,0.10117 0.82627,0.20235 0.55647,0.0843 1.48394,0.16863 0.92745,0.0843 2.31019,0.16863 1.39962,0.0675 3.35572,0.1349 1.80432,0.0675 3.0353,0.38784 1.23098,0.30354 1.97295,0.82628 0.75882,0.50589 1.07922,1.21413 0.33725,0.691369 0.33725,1.551379 0,1.51765 -0.80941,2.74864 -0.80942,1.23098 -2.32707,2.09098 -1.51765,0.86001 -3.70982,1.33217 -2.19218,0.47216 -4.9408,0.47216 -2.47885,0 -4.33375,-0.26981 -1.8549,-0.25294 -3.10275,-0.74196 -1.231,-0.47216 -1.85493,-1.14667 -0.60705,-0.67452 -0.60705,-1.5008 0,-0.60706 0.35411,-1.19726 0.35413,-0.59019 0.9106,-1.18039 0.57334,-0.57334 1.28157,-1.12981 0.72511,-0.55648 1.46707,-1.112949 -1.0455,-0.35412 -1.68628,-0.87686 -0.62393,-0.53962 -0.62393,-1.21413 0,-0.47216 0.28667,-0.97804 0.28668,-0.5058902 0.77569,-0.9949102 0.50589,-0.48902 1.16354,-0.92745 0.65764,-0.43844 1.41647,-0.77569 -0.89372,-0.40471 -1.60198,-0.89373 -0.70823,-0.48902 -1.21412,-1.11295 -0.48902,-0.62392 -0.75881,-1.399613 -0.2698,-0.77569 -0.2698,-1.7537339 0,-1.53451608 0.6745,-2.73177808 0.69138,-1.19725902 1.88863,-2.02353802 1.19727,-0.8262781 2.8161,-1.2478491 1.63569,-0.421571 3.52434,-0.421571 0.89372,0 1.75372,0.101178 0.87687,0.08431 1.6357,0.252942 0.75882,0.168629 1.34901,0.387845 0.60708,0.202353 0.96118,0.455296 z M 414.12348,14.24908 q -1.231,0 -2.46198,-0.0506 -1.23099,-0.0337 -2.34393,-0.10117 -1.09609,-0.0675 -1.98982,-0.13491 -0.89372,-0.0843 -1.45019,-0.15176 -0.59022,0.47216 -0.9106,1.14667 -0.30352,0.69138 -0.30352,1.34903 0,0.50588 0.38783,0.96118 0.38785,0.47216 1.16354,0.82628 0.77569,0.35412 1.92236,0.55647 1.16354,0.21922 2.69804,0.21922 1.66944,0 2.98472,-0.25295 1.31531,-0.23608 2.2259,-0.62392 0.92746,-0.38785 1.39962,-0.87687 0.48901,-0.48902 0.48901,-0.97804 0,-0.48902 -0.2698,-0.86001 -0.26979,-0.35411 -0.77568,-0.5902 -0.48902,-0.21921 -1.19727,-0.33725 -0.69138,-0.10118 -1.56823,-0.10118 z m -3.96277,-7.1666992 q 0.60705,0 1.16354,-0.33725 0.57333,-0.33726 1.01176,-0.9106 0.45529,-0.57333 0.70823,-1.29843 0.26982,-0.741968 0.26982,-1.53452 0,-1.1635339 -0.30354,-2.19216698 -0.30353,-1.028631 -0.82627,-1.787459 -0.52275,-0.77569002 -1.21413,-1.21412402 -0.69138,-0.4552941 -1.46706,-0.4552941 -0.74197,0 -1.26471,0.3541181 -0.52276,0.354119 -0.87687,0.961181 -0.33725,0.59019802 -0.50589,1.38275102 -0.15176,0.792552 -0.15176,1.68628208 0,1.0792219 0.23607,2.0572639 0.25295,0.961178 0.70825,1.703148 0.45529,0.7251 1.09607,1.16353 0.6408,0.42157 1.41649,0.42157 z"
       id="path1071"
       inkscape:connector-curvature="0"
       style="font-style:normal;font-variant:normal;font-weight:normal;font-stretch:normal;font-size:186.66667175px;line-height:1.25;font-family:'Tamil MN';-inkscape-font-specification:'Tamil MN';letter-spacing:0px;word-spacing:0px;fill:#000000;fill-opacity:1;stroke:none;stroke-width:0.18500924" />
  </g>
</svg>
