<?xml version="1.0" encoding="UTF-8" standalone="no"?>
<svg
   xmlns:dc="http://purl.org/dc/elements/1.1/"
   xmlns:cc="http://creativecommons.org/ns#"
   xmlns:rdf="http://www.w3.org/1999/02/22-rdf-syntax-ns#"
   xmlns:svg="http://www.w3.org/2000/svg"
   xmlns="http://www.w3.org/2000/svg"
   xmlns:sodipodi="http://sodipodi.sourceforge.net/DTD/sodipodi-0.dtd"
   xmlns:inkscape="http://www.inkscape.org/namespaces/inkscape"
   height="271.14197"
   width="3323.8027"
   id="svg3009"
   version="1.1"
   viewBox="-22.97106 -24.6679 551.42585 50.16377"
   sodipodi:docname="Julia-for-optimization-and-Learning.svg"
   inkscape:version="0.92.5 (2060ec1f9f, 2020-04-08)">
  <metadata
     id="metadata27">
    <rdf:RDF>
      <cc:Work
         rdf:about="">
        <dc:format>image/svg+xml</dc:format>
        <dc:type
           rdf:resource="http://purl.org/dc/dcmitype/StillImage" />
        <dc:title></dc:title>
      </cc:Work>
    </rdf:RDF>
  </metadata>
  <sodipodi:namedview
     pagecolor="#ffffff"
     bordercolor="#666666"
     borderopacity="1"
     objecttolerance="10"
     gridtolerance="10"
     guidetolerance="10"
     inkscape:pageopacity="0"
     inkscape:pageshadow="2"
     inkscape:window-width="2560"
     inkscape:window-height="1336"
     id="namedview25"
     showgrid="false"
     fit-margin-top="0"
     fit-margin-left="0"
     fit-margin-right="0"
     fit-margin-bottom="0"
     inkscape:zoom="0.40894343"
     inkscape:cx="1131.4014"
     inkscape:cy="-57.321831"
     inkscape:window-x="0"
     inkscape:window-y="27"
     inkscape:window-maximized="1"
     inkscape:current-layer="svg3009" />
  <defs
     id="defs2985">
    <style
       id="style2983">.cls-1{fill:#1a1a1a}</style>
  </defs>
  <g
     id="g1247">
    <g
       transform="translate(-16.164709,0.21127525)"
       id="g1113">
      <flowRoot
         xml:space="preserve"
         id="flowRoot29"
         style="font-style:normal;font-variant:normal;font-weight:normal;font-stretch:normal;font-size:40px;line-height:1.25;font-family:'Tamil MN';-inkscape-font-specification:'Tamil MN';letter-spacing:0px;word-spacing:0px;fill:#000000;fill-opacity:1;stroke:none"
         transform="matrix(0.18500925,0,0,0.18500925,88.80625,-127.9155)"><flowRegion
           id="flowRegion31"
           style="font-style:normal;font-variant:normal;font-weight:normal;font-stretch:normal;font-family:'Tamil MN';-inkscape-font-specification:'Tamil MN'"><rect
             id="rect33"
             width="1047.8386"
             height="636.31122"
             x="-1289.9136"
             y="-652.44958"
             style="font-style:normal;font-variant:normal;font-weight:normal;font-stretch:normal;font-family:'Tamil MN';-inkscape-font-specification:'Tamil MN'" /></flowRegion><flowPara
           id="flowPara35" /></flowRoot>      <path
         style="fill:#ca3c32;stroke-width:0.41092291"
         inkscape:connector-curvature="0"
         id="path13-3"
         d="m 16.095758,-6.2501523 a 3.6572138,3.6572138 0 1 1 3.661335,-3.6572183 3.661323,3.661323 0 0 1 -3.661335,3.6572183 z" />
      <path
         style="fill:#9259a3;stroke-width:0.41092291"
         inkscape:connector-curvature="0"
         id="path25-5"
         d="m 24.885408,-6.2501523 a 3.6572138,3.6572138 0 1 1 3.661336,-3.6572183 3.661323,3.661323 0 0 1 -3.661336,3.6572183 z" />
      <path
         style="fill:#399746;stroke-width:0.41092291"
         inkscape:connector-curvature="0"
         id="path31-6"
         d="m 20.492643,-13.864563 a 3.6572138,3.6572138 0 1 1 3.657215,-3.657219 3.6531046,3.6531046 0 0 1 -3.657215,3.657219 z" />
      <flowRoot
         xml:space="preserve"
         id="flowRoot1011"
         style="font-style:normal;font-variant:normal;font-weight:normal;font-stretch:normal;font-size:40px;line-height:1.25;font-family:MN;-inkscape-font-specification:MN;letter-spacing:0px;word-spacing:0px;fill:#000000;fill-opacity:1;stroke:none"
         transform="matrix(0.18500924,0,0,0.18500924,-78.600201,-116.44477)"><flowRegion
           id="flowRegion1013"><rect
             id="rect1015"
             width="658.78961"
             height="382.13257"
             x="70.893372"
             y="595.3894" /></flowRegion><flowPara
           id="flowPara1017" /></flowRoot>      <path
         style="font-style:normal;font-variant:normal;font-weight:normal;font-stretch:normal;font-size:186.66667175px;line-height:1.25;font-family:'Tamil MN';-inkscape-font-specification:'Tamil MN';letter-spacing:0px;word-spacing:0px;fill:#4d64ae;fill-opacity:1;stroke:none;stroke-width:0.22862896"
         d="m -28.56565,-9.7782596 q 0,-0.6876724 0.270902,-1.2919914 0.291739,-0.604318 0.791866,-1.041928 0.500126,-0.458449 1.16696,-0.708512 0.666835,-0.270901 1.417025,-0.270901 0.750189,0 1.417022,0.270901 0.666834,0.250063 1.16696,0.708512 0.500126,0.43761 0.791865,1.041928 0.29174,0.604319 0.29174,1.2919914 0,0.687675 -0.29174,1.291994 -0.291739,0.6043174 -0.791865,1.0419284 -0.500126,0.43761 -1.16696,0.708513 -0.666833,0.250063 -1.417022,0.250063 -0.75019,0 -1.417025,-0.250063 -0.666834,-0.270903 -1.16696,-0.708513 -0.500127,-0.437611 -0.791866,-1.0419284 -0.270902,-0.604319 -0.270902,-1.291994 z"
         id="path1027"
         inkscape:connector-curvature="0" />
      <path
         inkscape:connector-curvature="0"
         style="font-style:normal;font-variant:normal;font-weight:normal;font-stretch:normal;font-size:34.53506088px;line-height:1.25;font-family:'Tamil MN';-inkscape-font-specification:'Tamil MN';letter-spacing:0px;word-spacing:0px;fill:#000000;fill-opacity:1;stroke:none;stroke-width:0.18500924"
         d="m -22.117758,14.029865 q 0,2.411384 -0.556473,3.878449 -0.53961,1.483929 -1.534517,2.293344 -0.994906,0.826279 -2.394521,1.096084 -1.399614,0.286668 -3.102759,0.286668 -1.146672,0 -2.040402,-0.202354 -0.893729,-0.185491 -1.500791,-0.522748 -0.607061,-0.337256 -0.910592,-0.792552 -0.320394,-0.438434 -0.320394,-0.927455 0,-0.860004 0.674513,-1.43334 0.674513,-0.573336 1.838048,-0.573336 0.438433,0 0.792552,0.134902 0.337257,0.134903 0.607062,0.337257 0.269805,0.219216 0.489022,0.455296 0.202354,0.252942 0.354119,0.472159 0.387845,0.505885 0.640787,0.674513 0.269806,0.168628 0.489022,0.168628 0.23608,0 0.421571,-0.11804 0.185491,-0.118039 0.303531,-0.42157 0.118039,-0.303531 0.168628,-0.809416 0.06745,-0.505884 0.06745,-1.298437 V -3.0858998 l 5.514143,-1.517654 z"
         id="path1064" />
      <path
         inkscape:connector-curvature="0"
         id="path969"
         style="font-style:normal;font-variant:normal;font-weight:normal;font-stretch:normal;font-size:34.53506088px;line-height:1.25;font-family:'Tamil MN';-inkscape-font-specification:'Tamil MN';letter-spacing:0px;word-spacing:0px;fill:#000000;fill-opacity:1;stroke:none;stroke-width:0.18500924"
         d="m -12.253007,-4.0639435 v 12.748294 q 0,0.5396103 0.202354,1.0117693 0.219217,0.4552962 0.573336,0.7925522 0.370982,0.337257 0.843141,0.539611 0.489022,0.202354 1.0286323,0.202354 0.3035308,0 0.6913757,-0.168629 0.3878449,-0.168628 0.7756898,-0.472159 0.4047078,-0.30353 0.7756899,-0.7082381 0.3878449,-0.4047078 0.6913757,-0.8937296 V -4.0639435 h 5.4972802 V 14.029865 h -5.4972802 v -1.686282 q -1.0792206,0.927455 -2.3102067,1.483928 -1.2141237,0.539611 -2.3776577,0.539611 -1.349026,0 -2.512561,-0.438434 -1.163535,-0.455296 -2.023539,-1.214123 -0.860004,-0.77569 -1.349025,-1.804322 -0.489022,-1.0454949 -0.489022,-2.2258925 v -12.748294 z" />
      <path
         inkscape:connector-curvature="0"
         id="path971"
         style="font-style:normal;font-variant:normal;font-weight:normal;font-stretch:normal;font-size:34.53506088px;line-height:1.25;font-family:'Tamil MN';-inkscape-font-specification:'Tamil MN';letter-spacing:0px;word-spacing:0px;fill:#000000;fill-opacity:1;stroke:none;stroke-width:0.18500924"
         d="M 8.6568924,14.029865 H 3.2102007 v -25.378548 l 5.4466917,-1.517654 z" />
      <path
         inkscape:connector-curvature="0"
         style="font-style:normal;font-variant:normal;font-weight:normal;font-stretch:normal;font-size:34.53506088px;line-height:1.25;font-family:'Tamil MN';-inkscape-font-specification:'Tamil MN';letter-spacing:0px;word-spacing:0px;fill:#000000;fill-opacity:1;stroke:none;stroke-width:0.18500924"
         d="m 13.445933,-3.0858998 5.480417,-1.517654 V 14.029865 h -5.480417 z"
         id="path1068" />
      <path
         inkscape:connector-curvature="0"
         id="path975"
         style="font-style:normal;font-variant:normal;font-weight:normal;font-stretch:normal;font-size:34.53506088px;line-height:1.25;font-family:'Tamil MN';-inkscape-font-specification:'Tamil MN';letter-spacing:0px;word-spacing:0px;fill:#000000;fill-opacity:1;stroke:none;stroke-width:0.18500924"
         d="M 32.484064,4.6709987 Q 31.691511,5.0082551 30.882096,5.4635513 30.07268,5.9019847 29.41503,6.4415951 28.75738,6.9643426 28.33581,7.5714042 27.931102,8.161603 27.931102,8.8192531 q 0,0.5227475 0.134902,0.9949065 0.134903,0.4552964 0.370983,0.8094154 0.236079,0.337257 0.522747,0.53961 0.303531,0.202354 0.640787,0.202354 0.65765,0 1.349026,-0.404707 0.708239,-0.421571 1.534517,-1.0454955 z m 5.514143,9.3588663 h -5.514143 v -1.450202 q -0.455296,0.387844 -0.89373,0.708238 -0.438433,0.320394 -0.978043,0.573336 -0.522748,0.23608 -1.197261,0.370982 -0.674513,0.134903 -1.601968,0.134903 -1.247849,0 -2.259618,-0.35412 -0.994907,-0.354119 -1.703145,-0.978043 -0.691376,-0.640788 -1.062358,-1.500791 -0.370982,-0.860004 -0.370982,-1.854911 0,-1.045495 0.387845,-1.8717733 0.404708,-0.8431411 1.07922,-1.5176541 Q 24.5754,5.6153167 25.485993,5.0757064 26.413448,4.5360961 27.458943,4.0976627 28.521301,3.6592293 29.65111,3.2882472 30.780919,2.9172651 31.877002,2.5631458 L 32.484064,2.4282432 V 0.62392122 q 0,-0.86000396 -0.185491,-1.46706557 Q 32.129945,-1.450206 31.809551,-1.8211881 31.50602,-2.209033 31.050724,-2.3776612 q -0.438433,-0.1686282 -0.994906,-0.1686282 -0.657651,0 -1.096084,0.1686282 -0.438433,0.1686282 -0.708238,0.472159 -0.269806,0.286668 -0.387845,0.6745129 -0.11804,0.38784495 -0.11804,0.82627834 0,0.5227475 -0.11804,0.99490654 -0.101177,0.47215902 -0.387845,0.84314112 -0.269805,0.3541193 -0.758827,0.573336 -0.472159,0.2192167 -1.230986,0.2192167 -0.573336,0 -1.062358,-0.1686282 Q 23.715396,1.8717701 23.37814,1.5682393 23.040883,1.2478457 22.838529,0.82627509 22.653038,0.3878417 22.653038,-0.10118015 q 0,-0.94431805 0.640788,-1.73687075 0.640787,-0.8094155 1.720008,-1.3996143 1.096083,-0.5901988 2.51256,-0.9105924 1.43334,-0.3372565 3.018445,-0.3372565 1.939225,0 3.338839,0.3541193 1.416477,0.3541193 2.32707,0.9949066 0.910592,0.6407872 1.349026,1.5513796 0.438433,0.91059247 0.438433,2.04040159 z" />
      <path
         inkscape:connector-curvature="0"
         id="path977"
         style="font-style:normal;font-variant:normal;font-weight:normal;font-stretch:normal;font-size:34.53506088px;line-height:1.25;font-family:'Tamil MN';-inkscape-font-specification:'Tamil MN';letter-spacing:0px;word-spacing:0px;fill:#000000;fill-opacity:1;stroke:none;stroke-width:0.18500924"
         d="m 60.004189,-4.0639435 h 4.519236 v 2.2090298 H 60.004189 V 14.029865 H 54.523771 V -1.8549137 h -3.558055 v -2.2090298 h 3.558055 v -2.0741272 q 0,-1.3996143 0.556473,-2.664326 0.556474,-1.2815743 1.55138,-2.2427553 1.01177,-0.961181 2.377658,-1.534517 1.382752,-0.573336 3.035308,-0.573336 1.382752,0 2.394521,0.269805 1.011769,0.269805 1.652557,0.725102 0.640787,0.438433 0.944318,1.011769 0.320393,0.556473 0.320393,1.1466719 0,0.4552962 -0.185491,0.860004 -0.168628,0.4047077 -0.489022,0.7082385 -0.320393,0.3035308 -0.741964,0.4890219 -0.42157,0.1686282 -0.927455,0.1686282 -0.691376,0 -1.045495,-0.2529423 -0.354119,-0.2698052 -0.53961,-0.6576501 -0.185491,-0.4047078 -0.269805,-0.860004 -0.06745,-0.4721591 -0.219217,-0.8600041 -0.134903,-0.404708 -0.404708,-0.65765 -0.252942,-0.269805 -0.809415,-0.269805 -1.720008,0 -1.720008,2.9678567 z" />
      <path
         inkscape:connector-curvature="0"
         id="path979"
         style="font-style:normal;font-variant:normal;font-weight:normal;font-stretch:normal;font-size:34.53506088px;line-height:1.25;font-family:'Tamil MN';-inkscape-font-specification:'Tamil MN';letter-spacing:0px;word-spacing:0px;fill:#000000;fill-opacity:1;stroke:none;stroke-width:0.18500924"
         d="m 76.293678,14.367122 q -2.158442,0 -3.996489,-0.708239 -1.838048,-0.708238 -3.170211,-1.939224 -1.332163,-1.247849 -2.09099,-2.9341316 -0.741964,-1.6862823 -0.741964,-3.6255069 0,-2.09099 0.741964,-3.8447235 0.758827,-1.77059643 2.09099,-3.0353081 1.332163,-1.2815746 3.153348,-1.9898131 1.838048,-0.7251014 3.996489,-0.7251014 2.158441,0 3.996489,0.7082386 1.85491,0.6913757 3.187073,1.9223618 1.349026,1.23098601 2.107853,2.8835426 0.758827,1.6525567 0.758827,3.5580556 0,2.0066759 -0.758827,3.7772723 -0.758827,1.7705967 -2.107853,3.1027597 -1.332163,1.3153 -3.17021,2.09099 -1.838048,0.758827 -3.996489,0.758827 z m 0.640787,-2.20903 q 0.758827,0 1.382751,-0.489022 0.640788,-0.489022 1.096084,-1.3153 0.455296,-0.8262784 0.708238,-1.905499 0.269806,-1.0792207 0.269806,-2.2596183 0,-1.7368707 -0.252943,-3.2713876 -0.252942,-1.5345169 -0.843141,-2.6811888 -0.573336,-1.14667194 -1.517654,-1.8211849 -0.927455,-0.6745129 -2.276481,-0.6745129 -0.640787,0 -1.247849,0.4890219 -0.590199,0.472159 -1.045495,1.28157452 -0.455296,0.80941549 -0.741964,1.87177328 -0.269805,1.0623579 -0.269805,2.2258926 0,1.7537336 0.320393,3.3051133 0.320394,1.5513797 0.927456,2.7149144 0.623924,1.1635345 1.500791,1.8549105 0.876867,0.674513 1.989813,0.674513 z" />
      <path
         inkscape:connector-curvature="0"
         id="path981"
         style="font-style:normal;font-variant:normal;font-weight:normal;font-stretch:normal;font-size:34.53506088px;line-height:1.25;font-family:'Tamil MN';-inkscape-font-specification:'Tamil MN';letter-spacing:0px;word-spacing:0px;fill:#000000;fill-opacity:1;stroke:none;stroke-width:0.18500924"
         d="M 95.180037,14.029865 H 89.699619 V -4.0639435 h 5.480418 v 1.3490258 q 0.910592,-0.9274552 2.006675,-1.5007912 1.096084,-0.573336 2.32707,-0.573336 0.741968,0 1.382748,0.2023539 0.65765,0.1854911 1.12981,0.5227475 0.48902,0.3372565 0.75883,0.7756899 0.28667,0.4384333 0.28667,0.944318 0,0.4890219 -0.18549,0.8937296 -0.18549,0.387845 -0.52275,0.67451294 -0.32039,0.28666798 -0.75883,0.45529621 -0.42157,0.1517654 -0.91059,0.1517654 -0.65765,0 -1.079221,-0.20235387 -0.421571,-0.20235387 -0.758827,-0.45529621 -0.337257,-0.25294237 -0.708239,-0.45529617 -0.354119,-0.2023539 -0.876866,-0.2023539 -0.269806,0 -0.556474,0.2192167 -0.269805,0.2023539 -0.53961,0.55647313 -0.269805,0.33725645 -0.522747,0.79255266 -0.252943,0.45529622 -0.472159,0.92745521 z" />
      <path
         inkscape:connector-curvature="0"
         id="path983"
         style="font-style:normal;font-variant:normal;font-weight:normal;font-stretch:normal;font-size:34.53506088px;line-height:1.25;font-family:'Tamil MN';-inkscape-font-specification:'Tamil MN';letter-spacing:0px;word-spacing:0px;fill:#000000;fill-opacity:1;stroke:none;stroke-width:0.18500924"
         d="m 128.18059,14.569476 q -1.93923,0 -3.70982,-0.438434 -1.7706,-0.42157 -3.28825,-1.214123 -1.51766,-0.792553 -2.76551,-1.922362 -1.24785,-1.1298089 -2.12471,-2.546286 -0.87687,-1.4164772 -1.36589,-3.0690338 -0.47216,-1.6694194 -0.47216,-3.5243299 0,-1.82118487 0.47216,-3.4400159 0.48902,-1.6356938 1.36589,-3.0015824 0.87686,-1.3658886 2.12471,-2.4619721 1.24785,-1.1129463 2.76551,-1.8717733 1.51765,-0.758827 3.28825,-1.1635346 1.77059,-0.421571 3.70982,-0.421571 1.93922,0 3.70982,0.421571 1.77059,0.4047076 3.28825,1.1803974 1.51765,0.758827 2.7655,1.8549105 1.24785,1.0960835 2.12472,2.4619721 0.87686,1.3658886 1.34902,2.9847196 0.48902,1.618831 0.48902,3.423153 0,1.905499 -0.48902,3.5917813 -0.47216,1.6862822 -1.34902,3.1027593 -0.87687,1.4164771 -2.12472,2.5462858 -1.24785,1.112947 -2.7655,1.905499 -1.51766,0.77569 -3.28825,1.180398 -1.7706,0.421571 -3.70982,0.421571 z m 0,-2.040402 q 1.75373,0 3.08589,-0.792553 1.34903,-0.809415 2.25962,-2.2258922 0.91059,-1.4333399 1.36589,-3.3894274 0.47216,-1.9560874 0.47216,-4.2662941 0,-2.27648109 -0.47216,-4.1651172 -0.4553,-1.905499 -1.36589,-3.2713876 -0.91059,-1.3658887 -2.25962,-2.1247157 -1.33216,-0.758827 -3.08589,-0.758827 -1.7706,0 -3.11963,0.758827 -1.34902,0.758827 -2.25961,2.1247157 -0.89373,1.3658886 -1.36589,3.2713876 -0.4553,1.88863611 -0.4553,4.1651172 0,2.3102067 0.4553,4.2662941 0.47216,1.9560875 1.36589,3.3894274 0.91059,1.4164772 2.25961,2.2258922 1.34903,0.792553 3.11963,0.792553 z" />
      <path
         inkscape:connector-curvature="0"
         id="path985"
         style="font-style:normal;font-variant:normal;font-weight:normal;font-stretch:normal;font-size:34.53506088px;line-height:1.25;font-family:'Tamil MN';-inkscape-font-specification:'Tamil MN';letter-spacing:0px;word-spacing:0px;fill:#000000;fill-opacity:1;stroke:none;stroke-width:0.18500924"
         d="m 145.70105,-4.0639435 h 5.51414 v 1.4164771 q 0.94432,-0.7756898 2.15844,-1.2815745 1.23099,-0.5058847 2.86668,-0.5058847 1.73687,0 3.15335,0.6913757 1.41648,0.674513 2.42824,1.8380477 1.01177,1.16353478 1.55138,2.71491447 0.55648,1.53451683 0.55648,3.27138763 0,2.2258926 -0.65765,4.1145287 -0.64079,1.8717734 -1.85491,3.2545244 -1.21413,1.365889 -2.93413,2.141579 -1.72001,0.77569 -3.86159,0.77569 -1.07922,0 -1.87177,-0.08431 -0.79256,-0.08432 -1.53452,-0.387845 v 7.251013 h -5.51414 z m 5.51414,13.0518248 q 0,0.6576501 0.23608,1.2478487 0.25294,0.573336 0.69137,1.01177 0.4553,0.42157 1.07922,0.674512 0.64079,0.23608 1.39962,0.23608 0.70824,0 1.33216,-0.472159 0.62393,-0.472159 1.07922,-1.298437 0.47216,-0.8431416 0.74197,-2.0066763 0.28666,-1.1635348 0.28666,-2.5294234 0,-1.7537336 -0.25294,-3.0690338 -0.23608,-1.332163 -0.67451,-2.22589257 -0.43843,-0.8937296 -1.0455,-1.33216299 -0.60706,-0.45529624 -1.33216,-0.45529624 -0.52275,0 -1.01177,0.1854911 -0.48902,0.1686282 -0.94432,0.47215901 -0.43843,0.30353081 -0.84314,0.72510138 -0.4047,0.40470774 -0.74196,0.86000391 z" />
      <path
         inkscape:connector-curvature="0"
         id="path987"
         style="font-style:normal;font-variant:normal;font-weight:normal;font-stretch:normal;font-size:34.53506088px;line-height:1.25;font-family:'Tamil MN';-inkscape-font-specification:'Tamil MN';letter-spacing:0px;word-spacing:0px;fill:#000000;fill-opacity:1;stroke:none;stroke-width:0.18500924"
         d="m 166.02076,-1.8549137 v -1.8211849 q 0.97804,0 1.83805,-0.4890218 0.87686,-0.4890219 1.56824,-1.3153002 0.70824,-0.8431411 1.19726,-1.9560874 0.50588,-1.1298091 0.75883,-2.3945209 h 3.0353 v 5.7670854 h 4.46865 v 2.2090298 h -4.46865 V 9.8310224 q 0,0.5396106 0.26981,0.9443176 0.28667,0.404708 0.77569,0.404708 0.28667,0 0.62392,-0.185491 0.33726,-0.202354 0.64079,-0.455296 0.30353,-0.252942 0.53961,-0.505885 0.25294,-0.2698049 0.35412,-0.4047075 l 1.88864,1.4839285 q -0.4553,0.708238 -1.01177,1.3153 -0.53961,0.607062 -1.24785,1.062358 -0.70824,0.438433 -1.63569,0.691376 -0.9106,0.252942 -2.12472,0.252942 -1.14667,0 -2.00668,-0.337256 -0.84314,-0.320394 -1.41647,-0.89373 -0.57334,-0.590199 -0.86001,-1.399614 -0.28667,-0.826279 -0.28667,-1.8211852 V -1.8549137 Z" />
      <path
         inkscape:connector-curvature="0"
         id="path989"
         style="font-style:normal;font-variant:normal;font-weight:normal;font-stretch:normal;font-size:34.53506088px;line-height:1.25;font-family:'Tamil MN';-inkscape-font-specification:'Tamil MN';letter-spacing:0px;word-spacing:0px;fill:#000000;fill-opacity:1;stroke:none;stroke-width:0.18500924"
         d="m 182.25965,-3.0858998 5.48042,-1.517654 V 14.029865 h -5.48042 z m -0.23608,-6.7619919 q 0,-0.5564733 0.21922,-1.0454953 0.23608,-0.489022 0.64079,-0.843141 0.40471,-0.370982 0.94432,-0.573336 0.53961,-0.219216 1.14667,-0.219216 0.60706,0 1.14667,0.219216 0.53961,0.202354 0.94432,0.573336 0.40471,0.354119 0.64079,0.843141 0.23608,0.489022 0.23608,1.0454953 0,0.5564732 -0.23608,1.045495 -0.23608,0.4890219 -0.64079,0.8431412 -0.40471,0.3541192 -0.94432,0.5733359 -0.53961,0.2023539 -1.14667,0.2023539 -0.60706,0 -1.14667,-0.2023539 -0.53961,-0.2192167 -0.94432,-0.5733359 -0.40471,-0.3541193 -0.64079,-0.8431412 -0.21922,-0.4890218 -0.21922,-1.045495 z" />
      <path
         inkscape:connector-curvature="0"
         id="path991"
         style="font-style:normal;font-variant:normal;font-weight:normal;font-stretch:normal;font-size:34.53506088px;line-height:1.25;font-family:'Tamil MN';-inkscape-font-specification:'Tamil MN';letter-spacing:0px;word-spacing:0px;fill:#000000;fill-opacity:1;stroke:none;stroke-width:0.18500924"
         d="m 214.63628,1.7368675 q 0,-0.6070616 -0.15177,-1.14667192 -0.1349,-0.53961033 -0.40471,-0.94431808 -0.25294,-0.40470774 -0.60706,-0.64078726 -0.35412,-0.23607954 -0.77569,-0.23607954 -0.47216,0 -0.9949,0.1686283 -0.50589,0.15176536 -1.01177,0.42157052 -0.48902,0.26980516 -0.94432,0.62392444 -0.4553,0.35411928 -0.77569,0.75882702 V 14.029865 h -5.46356 V 1.7368675 q 0,-0.6070616 -0.16862,-1.14667192 -0.15177,-0.53961033 -0.42157,-0.94431808 -0.26981,-0.40470774 -0.62393,-0.64078726 -0.35412,-0.23607954 -0.7251,-0.23607954 -0.43843,0 -0.94432,0.1686283 -0.50588,0.15176536 -1.01177,0.42157052 -0.48902,0.26980516 -0.96118,0.62392444 -0.47216,0.35411928 -0.84314,0.75882702 V 14.029865 h -5.48042 V -4.0639435 h 5.48042 v 1.5513797 q 1.29844,-0.8768668 2.68119,-1.3996143 1.38275,-0.5227475 2.66433,-0.5227475 0.70823,0 1.43334,0.1686282 0.7251,0.1517654 1.38275,0.4384334 0.67451,0.286668 1.23098,0.7251014 0.57334,0.4215706 0.96118,0.9443181 0.62393,-0.5058847 1.36589,-0.9274553 0.75883,-0.4215705 1.56824,-0.7082385 0.82628,-0.3035308 1.66942,-0.4721591 0.86001,-0.1686282 1.70315,-0.1686282 1.16353,0 2.19217,0.4552962 1.04549,0.4384334 1.82118,1.2141233 0.79255,0.7756898 1.24785,1.82118481 0.4553,1.04549501 0.4553,2.24275539 V 14.029865 h -5.54787 z" />
      <path
         inkscape:connector-curvature="0"
         id="path993"
         style="font-style:normal;font-variant:normal;font-weight:normal;font-stretch:normal;font-size:34.53506088px;line-height:1.25;font-family:'Tamil MN';-inkscape-font-specification:'Tamil MN';letter-spacing:0px;word-spacing:0px;fill:#000000;fill-opacity:1;stroke:none;stroke-width:0.18500924"
         d="m 224.80456,-3.0858998 5.48042,-1.517654 V 14.029865 h -5.48042 z m -0.23608,-6.7619919 q 0,-0.5564733 0.21922,-1.0454953 0.23608,-0.489022 0.64078,-0.843141 0.40471,-0.370982 0.94432,-0.573336 0.53961,-0.219216 1.14667,-0.219216 0.60707,0 1.14668,0.219216 0.53961,0.202354 0.94431,0.573336 0.40471,0.354119 0.64079,0.843141 0.23608,0.489022 0.23608,1.0454953 0,0.5564732 -0.23608,1.045495 -0.23608,0.4890219 -0.64079,0.8431412 -0.4047,0.3541192 -0.94431,0.5733359 -0.53961,0.2023539 -1.14668,0.2023539 -0.60706,0 -1.14667,-0.2023539 -0.53961,-0.2192167 -0.94432,-0.5733359 -0.4047,-0.3541193 -0.64078,-0.8431412 -0.21922,-0.4890218 -0.21922,-1.045495 z" />
      <path
         inkscape:connector-curvature="0"
         id="path995"
         style="font-style:normal;font-variant:normal;font-weight:normal;font-stretch:normal;font-size:34.53506088px;line-height:1.25;font-family:'Tamil MN';-inkscape-font-specification:'Tamil MN';letter-spacing:0px;word-spacing:0px;fill:#000000;fill-opacity:1;stroke:none;stroke-width:0.18500924"
         d="m 232.49401,12.613388 11.78711,-14.8055582 h -10.26945 v -2.2090297 h 17.55419 v 1.1803975 L 239.64385,11.820835 h 11.56789 v 2.20903 h -18.71773 z" />
      <path
         inkscape:connector-curvature="0"
         id="path997"
         style="font-style:normal;font-variant:normal;font-weight:normal;font-stretch:normal;font-size:34.53506088px;line-height:1.25;font-family:'Tamil MN';-inkscape-font-specification:'Tamil MN';letter-spacing:0px;word-spacing:0px;fill:#000000;fill-opacity:1;stroke:none;stroke-width:0.18500924"
         d="m 263.18434,4.6709987 q -0.79256,0.3372564 -1.60197,0.7925526 -0.80942,0.4384334 -1.46707,0.9780438 -0.65765,0.5227475 -1.07922,1.1298091 -0.40471,0.5901988 -0.40471,1.2478489 0,0.5227475 0.13491,0.9949065 0.1349,0.4552964 0.37098,0.8094154 0.23608,0.337257 0.52275,0.53961 0.30353,0.202354 0.64078,0.202354 0.65765,0 1.34903,-0.404707 0.70824,-0.421571 1.53452,-1.0454955 z m 5.51414,9.3588663 h -5.51414 v -1.450202 q -0.4553,0.387844 -0.89373,0.708238 -0.43844,0.320394 -0.97805,0.573336 -0.52275,0.23608 -1.19726,0.370982 -0.67451,0.134903 -1.60197,0.134903 -1.24785,0 -2.25961,-0.35412 -0.99491,-0.354119 -1.70315,-0.978043 -0.69138,-0.640788 -1.06236,-1.500791 -0.37098,-0.860004 -0.37098,-1.854911 0,-1.045495 0.38785,-1.8717733 0.4047,-0.8431411 1.07922,-1.5176541 0.69137,-0.6745129 1.60196,-1.2141232 0.92746,-0.5396103 1.97295,-0.9780437 1.06236,-0.4384334 2.19217,-0.8094155 1.12981,-0.3709821 2.22589,-0.7251014 l 0.60707,-0.1349026 V 0.62392122 q 0,-0.86000396 -0.1855,-1.46706557 -0.16862,-0.60706165 -0.48902,-0.97804375 -0.30353,-0.3878449 -0.75882,-0.5564731 -0.43844,-0.1686282 -0.99491,-0.1686282 -0.65765,0 -1.09608,0.1686282 -0.43844,0.1686282 -0.70824,0.472159 -0.26981,0.286668 -0.38785,0.6745129 -0.11804,0.38784495 -0.11804,0.82627834 0,0.5227475 -0.11804,0.99490654 -0.10117,0.47215902 -0.38784,0.84314112 -0.26981,0.3541193 -0.75883,0.573336 -0.47216,0.2192167 -1.23099,0.2192167 -0.57333,0 -1.06235,-0.1686282 -0.47216,-0.1854911 -0.80942,-0.4890219 -0.33726,-0.3203936 -0.53961,-0.74196421 -0.18549,-0.43843339 -0.18549,-0.92745524 0,-0.94431805 0.64079,-1.73687075 0.64078,-0.8094155 1.72001,-1.3996143 1.09608,-0.5901988 2.51256,-0.9105924 1.43334,-0.3372565 3.01844,-0.3372565 1.93923,0 3.33884,0.3541193 1.41648,0.3541193 2.32707,0.9949066 0.91059,0.6407872 1.34903,1.5513796 0.43843,0.91059247 0.43843,2.04040159 z" />
      <path
         inkscape:connector-curvature="0"
         id="path999"
         style="font-style:normal;font-variant:normal;font-weight:normal;font-stretch:normal;font-size:34.53506088px;line-height:1.25;font-family:'Tamil MN';-inkscape-font-specification:'Tamil MN';letter-spacing:0px;word-spacing:0px;fill:#000000;fill-opacity:1;stroke:none;stroke-width:0.18500924"
         d="m 272.22282,-1.8549137 v -1.8211849 q 0.97804,0 1.83804,-0.4890218 0.87687,-0.4890219 1.56825,-1.3153002 0.70823,-0.8431411 1.19726,-1.9560874 0.50588,-1.1298091 0.75882,-2.3945209 h 3.03531 v 5.7670854 h 4.46865 v 2.2090298 H 280.6205 V 9.8310224 q 0,0.5396106 0.26981,0.9443176 0.28666,0.404708 0.77569,0.404708 0.28666,0 0.62392,-0.185491 0.33726,-0.202354 0.64079,-0.455296 0.30353,-0.252942 0.53961,-0.505885 0.25294,-0.2698049 0.35412,-0.4047075 l 1.88863,1.4839285 q -0.45529,0.708238 -1.01177,1.3153 -0.53961,0.607062 -1.24784,1.062358 -0.70824,0.438433 -1.6357,0.691376 -0.91059,0.252942 -2.12471,0.252942 -1.14668,0 -2.00668,-0.337256 -0.84314,-0.320394 -1.41648,-0.89373 -0.57333,-0.590199 -0.86,-1.399614 -0.28667,-0.826279 -0.28667,-1.8211852 V -1.8549137 Z" />
      <path
         inkscape:connector-curvature="0"
         id="path1001"
         style="font-style:normal;font-variant:normal;font-weight:normal;font-stretch:normal;font-size:34.53506088px;line-height:1.25;font-family:'Tamil MN';-inkscape-font-specification:'Tamil MN';letter-spacing:0px;word-spacing:0px;fill:#000000;fill-opacity:1;stroke:none;stroke-width:0.18500924"
         d="m 288.46171,-3.0858998 5.48042,-1.517654 V 14.029865 h -5.48042 z m -0.23608,-6.7619919 q 0,-0.5564733 0.21922,-1.0454953 0.23608,-0.489022 0.64079,-0.843141 0.4047,-0.370982 0.94431,-0.573336 0.53961,-0.219216 1.14668,-0.219216 0.60706,0 1.14667,0.219216 0.53961,0.202354 0.94432,0.573336 0.4047,0.354119 0.64078,0.843141 0.23608,0.489022 0.23608,1.0454953 0,0.5564732 -0.23608,1.045495 -0.23608,0.4890219 -0.64078,0.8431412 -0.40471,0.3541192 -0.94432,0.5733359 -0.53961,0.2023539 -1.14667,0.2023539 -0.60707,0 -1.14668,-0.2023539 -0.53961,-0.2192167 -0.94431,-0.5733359 -0.40471,-0.3541193 -0.64079,-0.8431412 -0.21922,-0.4890218 -0.21922,-1.045495 z" />
      <path
         inkscape:connector-curvature="0"
         id="path1003"
         style="font-style:normal;font-variant:normal;font-weight:normal;font-stretch:normal;font-size:34.53506088px;line-height:1.25;font-family:'Tamil MN';-inkscape-font-specification:'Tamil MN';letter-spacing:0px;word-spacing:0px;fill:#000000;fill-opacity:1;stroke:none;stroke-width:0.18500924"
         d="m 307.68532,14.367122 q -2.15844,0 -3.99649,-0.708239 -1.83805,-0.708238 -3.17021,-1.939224 -1.33217,-1.247849 -2.09099,-2.9341316 -0.74197,-1.6862823 -0.74197,-3.6255069 0,-2.09099 0.74197,-3.8447235 0.75882,-1.77059643 2.09099,-3.0353081 1.33216,-1.2815746 3.15335,-1.9898131 1.83804,-0.7251014 3.99648,-0.7251014 2.15845,0 3.99649,0.7082386 1.85491,0.6913757 3.18708,1.9223618 1.34902,1.23098601 2.10785,2.8835426 0.75883,1.6525567 0.75883,3.5580556 0,2.0066759 -0.75883,3.7772723 -0.75883,1.7705967 -2.10785,3.1027597 -1.33217,1.3153 -3.17021,2.09099 -1.83805,0.758827 -3.99649,0.758827 z m 0.64078,-2.20903 q 0.75883,0 1.38276,-0.489022 0.64078,-0.489022 1.09608,-1.3153 0.4553,-0.8262784 0.70824,-1.905499 0.2698,-1.0792207 0.2698,-2.2596183 0,-1.7368707 -0.25294,-3.2713876 -0.25294,-1.5345169 -0.84314,-2.6811888 -0.57334,-1.14667194 -1.51765,-1.8211849 -0.92746,-0.6745129 -2.27649,-0.6745129 -0.64078,0 -1.24784,0.4890219 -0.5902,0.472159 -1.0455,1.28157452 -0.4553,0.80941549 -0.74196,1.87177328 -0.26981,1.0623579 -0.26981,2.2258926 0,1.7537336 0.3204,3.3051133 0.32039,1.5513797 0.92745,2.7149144 0.62392,1.1635345 1.50079,1.8549105 0.87687,0.674513 1.98981,0.674513 z" />
      <path
         inkscape:connector-curvature="0"
         id="path1005"
         style="font-style:normal;font-variant:normal;font-weight:normal;font-stretch:normal;font-size:34.53506088px;line-height:1.25;font-family:'Tamil MN';-inkscape-font-specification:'Tamil MN';letter-spacing:0px;word-spacing:0px;fill:#000000;fill-opacity:1;stroke:none;stroke-width:0.18500924"
         d="m 332.25446,1.6356906 q 0,-0.69137575 -0.15176,-1.23098607 -0.15177,-0.53961033 -0.40471,-0.89372961 -0.25294,-0.3709821 -0.5902,-0.55647312 -0.32039,-0.1854911 -0.67451,-0.1854911 -0.35412,0 -0.82628,0.1517654 -0.4553,0.13490261 -0.96118,0.40470777 -0.50589,0.25294234 -1.02863,0.62392444 -0.52275,0.3709821 -1.01177,0.82627832 V 14.029865 h -5.51415 V -4.0639435 h 5.51415 v 1.4164771 q 1.26471,-0.9274552 2.71491,-1.3490258 1.4502,-0.4384334 2.90041,-0.4384334 1.11294,0 2.10785,0.4384334 1.01177,0.4215706 1.75373,1.1803976 0.75883,0.7419642 1.19726,1.7537336 0.4553,0.99490649 0.4553,2.1415784 V 14.029865 h -5.48042 z" />
      <path
         inkscape:connector-curvature="0"
         id="path1007"
         style="font-style:normal;font-variant:normal;font-weight:normal;font-stretch:normal;font-size:34.53506088px;line-height:1.25;font-family:'Tamil MN';-inkscape-font-specification:'Tamil MN';letter-spacing:0px;word-spacing:0px;fill:#000000;fill-opacity:1;stroke:none;stroke-width:0.18500924"
         d="m 360.61772,4.6709987 q -0.79256,0.3372564 -1.60197,0.7925526 -0.80942,0.4384334 -1.46707,0.9780438 -0.65765,0.5227475 -1.07922,1.1298091 -0.40471,0.5901988 -0.40471,1.2478489 0,0.5227475 0.13491,0.9949065 0.1349,0.4552964 0.37098,0.8094154 0.23608,0.337257 0.52275,0.53961 0.30353,0.202354 0.64078,0.202354 0.65765,0 1.34903,-0.404707 0.70824,-0.421571 1.53452,-1.0454955 z m 5.51414,9.3588663 h -5.51414 v -1.450202 q -0.4553,0.387844 -0.89373,0.708238 -0.43844,0.320394 -0.97805,0.573336 -0.52275,0.23608 -1.19726,0.370982 -0.67451,0.134903 -1.60197,0.134903 -1.24785,0 -2.25961,-0.35412 -0.99491,-0.354119 -1.70315,-0.978043 -0.69138,-0.640788 -1.06236,-1.500791 -0.37098,-0.860004 -0.37098,-1.854911 0,-1.045495 0.38785,-1.8717733 0.4047,-0.8431411 1.07922,-1.5176541 0.69137,-0.6745129 1.60196,-1.2141232 0.92746,-0.5396103 1.97295,-0.9780437 1.06236,-0.4384334 2.19217,-0.8094155 1.12981,-0.3709821 2.22589,-0.7251014 l 0.60707,-0.1349026 V 0.62392122 q 0,-0.86000396 -0.1855,-1.46706557 -0.16862,-0.60706165 -0.48902,-0.97804375 -0.30353,-0.3878449 -0.75882,-0.5564731 -0.43844,-0.1686282 -0.99491,-0.1686282 -0.65765,0 -1.09608,0.1686282 -0.43844,0.1686282 -0.70824,0.472159 -0.26981,0.286668 -0.38785,0.6745129 -0.11804,0.38784495 -0.11804,0.82627834 0,0.5227475 -0.11804,0.99490654 -0.10117,0.47215902 -0.38784,0.84314112 -0.26981,0.3541193 -0.75883,0.573336 -0.47216,0.2192167 -1.23099,0.2192167 -0.57333,0 -1.06235,-0.1686282 -0.47216,-0.1854911 -0.80942,-0.4890219 -0.33725,-0.3203936 -0.53961,-0.74196421 -0.18549,-0.43843339 -0.18549,-0.92745524 0,-0.94431805 0.64079,-1.73687075 0.64078,-0.8094155 1.72001,-1.3996143 1.09608,-0.5901988 2.51256,-0.9105924 1.43334,-0.3372565 3.01844,-0.3372565 1.93923,0 3.33884,0.3541193 1.41648,0.3541193 2.32707,0.9949066 0.91059,0.6407872 1.34903,1.5513796 0.43843,0.91059247 0.43843,2.04040159 z" />
      <path
         inkscape:connector-curvature="0"
         id="path1009"
         style="font-style:normal;font-variant:normal;font-weight:normal;font-stretch:normal;font-size:34.53506088px;line-height:1.25;font-family:'Tamil MN';-inkscape-font-specification:'Tamil MN';letter-spacing:0px;word-spacing:0px;fill:#000000;fill-opacity:1;stroke:none;stroke-width:0.18500924"
         d="m 382.10096,1.6356906 q 0,-0.69137575 -0.15177,-1.23098607 -0.15176,-0.53961033 -0.4047,-0.89372961 -0.25295,-0.3709821 -0.5902,-0.55647312 -0.3204,-0.1854911 -0.67452,-0.1854911 -0.35411,0 -0.82627,0.1517654 -0.4553,0.13490261 -0.96118,0.40470777 -0.50589,0.25294234 -1.02864,0.62392444 -0.52274,0.3709821 -1.01177,0.82627832 V 14.029865 h -5.51414 V -4.0639435 h 5.51414 v 1.4164771 q 1.26472,-0.9274552 2.71492,-1.3490258 1.4502,-0.4384334 2.9004,-0.4384334 1.11295,0 2.10786,0.4384334 1.01177,0.4215706 1.75373,1.1803976 0.75883,0.7419642 1.19726,1.7537336 0.4553,0.99490649 0.4553,2.1415784 V 14.029865 h -5.48042 z" />
      <path
         inkscape:connector-curvature="0"
         id="path1011"
         style="font-style:normal;font-variant:normal;font-weight:normal;font-stretch:normal;font-size:34.53506088px;line-height:1.25;font-family:'Tamil MN';-inkscape-font-specification:'Tamil MN';letter-spacing:0px;word-spacing:0px;fill:#000000;fill-opacity:1;stroke:none;stroke-width:0.18500924"
         d="m 403.68537,12.967507 q -0.9949,0.691376 -2.19216,1.079221 -1.19726,0.387845 -2.34393,0.387845 -1.14668,0 -2.19217,-0.354119 -1.0455,-0.337257 -1.95609,-0.961181 -0.91059,-0.623925 -1.66942,-1.483929 -0.74196,-0.876866 -1.26471,-1.9054985 -0.52275,-1.0286322 -0.82628,-2.192167 -0.28667,-1.1635347 -0.28667,-2.377658 0,-1.8211848 0.77569,-3.5411927 0.79256,-1.72000795 2.14158,-3.0690338 1.34903,-1.3490258 3.15335,-2.1584413 1.82118,-0.8262783 3.89531,-0.8262783 0.79255,0 1.50079,0.1180398 0.70824,0.1180397 1.26471,0.3541192 v -7.3859164 l 5.46356,-1.517654 v 26.896202 h -5.46356 z m 0,-11.2643651 q 0,-0.87686681 -0.28666,-1.60196818 -0.26981,-0.72510138 -0.7251,-1.23098602 -0.43844,-0.5227475 -1.01177,-0.8094155 -0.55648,-0.286668 -1.12981,-0.286668 -0.75883,0 -1.43334,0.4890218 -0.67452,0.4721591 -1.1804,1.33216304 -0.50589,0.86000395 -0.80942,2.04040156 -0.28666,1.1803976 -0.28666,2.563149 0,1.5007913 0.33725,2.8666799 0.33726,1.3658886 0.92746,2.4113836 0.5902,1.0286319 1.36589,1.6525569 0.77569,0.607061 1.66942,0.607061 0.30353,0 0.65765,-0.08431 0.35412,-0.101177 0.69137,-0.269805 0.35412,-0.185491 0.65765,-0.42157 0.3204,-0.252943 0.55647,-0.539611 z" />
      <path
         inkscape:connector-curvature="0"
         id="path1013"
         style="font-style:normal;font-variant:normal;font-weight:normal;font-stretch:normal;font-size:34.53506088px;line-height:1.25;font-family:'Tamil MN';-inkscape-font-specification:'Tamil MN';letter-spacing:0px;word-spacing:0px;fill:#000000;fill-opacity:1;stroke:none;stroke-width:0.18500924"
         d="m 423.9039,-9.9827943 h 5.88512 V 11.567893 h 12.25927 v 2.461972 H 423.9039 Z" />
      <path
         inkscape:connector-curvature="0"
         id="path1015"
         style="font-style:normal;font-variant:normal;font-weight:normal;font-stretch:normal;font-size:34.53506088px;line-height:1.25;font-family:'Tamil MN';-inkscape-font-specification:'Tamil MN';letter-spacing:0px;word-spacing:0px;fill:#000000;fill-opacity:1;stroke:none;stroke-width:0.18500924"
         d="m 453.46443,14.434573 q -1.93922,0 -3.64237,-0.708239 -1.68628,-0.725101 -2.95099,-1.939224 -1.26471,-1.214123 -1.98982,-2.8160915 -0.7251,-1.618831 -0.7251,-3.4062902 0,-2.1415785 0.67452,-3.9627634 0.67451,-1.83804764 1.90549,-3.1702106 1.23099,-1.3490258 2.96786,-2.1078529 1.73687,-0.758827 3.86159,-0.758827 1.88863,0 3.45688,0.6070616 1.5851,0.5901988 2.69805,1.6525567 1.12981,1.045495 1.75373,2.46197207 0.62393,1.39961433 0.62393,3.01844523 h -12.54594 q 0.0506,1.5007912 0.42157,2.8666799 0.38784,1.3658886 1.02863,2.4113836 0.64079,1.045495 1.50079,1.6694195 0.86,0.607062 1.9055,0.607062 0.91059,0 1.78746,-0.303531 0.87687,-0.320394 1.61883,-0.8600042 0.74196,-0.5564731 1.28157,-1.2815745 0.53961,-0.7251014 0.79256,-1.5345169 l 2.81609,0.4215706 q -0.42157,1.4670656 -1.36589,2.765503 -0.92746,1.298437 -2.1753,2.276481 -1.24785,0.961181 -2.73178,1.534517 -1.46707,0.556473 -2.96786,0.556473 z M 455.7915,1.4333367 q -0.0675,-0.80941548 -0.35412,-1.46706556 -0.2698,-0.65765009 -0.70824,-1.12980914 -0.42157,-0.472159 -0.9949,-0.7251014 -0.55648,-0.2698051 -1.21413,-0.2698051 -0.50588,0 -0.9949,0.2529423 -0.48903,0.2529424 -0.89373,0.7251014 -0.40471,0.47215903 -0.69138,1.14667194 -0.2698,0.65765008 -0.35412,1.46706556 z" />
      <path
         inkscape:connector-curvature="0"
         id="path1017"
         style="font-style:normal;font-variant:normal;font-weight:normal;font-stretch:normal;font-size:34.53506088px;line-height:1.25;font-family:'Tamil MN';-inkscape-font-specification:'Tamil MN';letter-spacing:0px;word-spacing:0px;fill:#000000;fill-opacity:1;stroke:none;stroke-width:0.18500924"
         d="m 475.04884,4.6709987 q -0.79256,0.3372564 -1.60197,0.7925526 -0.80942,0.4384334 -1.46707,0.9780438 -0.65765,0.5227475 -1.07922,1.1298091 -0.4047,0.5901988 -0.4047,1.2478489 0,0.5227475 0.1349,0.9949065 0.1349,0.4552964 0.37098,0.8094154 0.23608,0.337257 0.52275,0.53961 0.30353,0.202354 0.64078,0.202354 0.65765,0 1.34903,-0.404707 0.70824,-0.421571 1.53452,-1.0454955 z m 5.51414,9.3588663 h -5.51414 v -1.450202 q -0.4553,0.387844 -0.89373,0.708238 -0.43844,0.320394 -0.97805,0.573336 -0.52274,0.23608 -1.19726,0.370982 -0.67451,0.134903 -1.60196,0.134903 -1.24785,0 -2.25962,-0.35412 -0.99491,-0.354119 -1.70315,-0.978043 -0.69137,-0.640788 -1.06236,-1.500791 -0.37098,-0.860004 -0.37098,-1.854911 0,-1.045495 0.38785,-1.8717733 0.40471,-0.8431411 1.07922,-1.5176541 0.69137,-0.6745129 1.60197,-1.2141232 0.92745,-0.5396103 1.97295,-0.9780437 1.06235,-0.4384334 2.19216,-0.8094155 1.12981,-0.3709821 2.2259,-0.7251014 l 0.60706,-0.1349026 V 0.62392122 q 0,-0.86000396 -0.18549,-1.46706557 -0.16863,-0.60706165 -0.48903,-0.97804375 -0.30353,-0.3878449 -0.75882,-0.5564731 -0.43844,-0.1686282 -0.99491,-0.1686282 -0.65765,0 -1.09608,0.1686282 -0.43844,0.1686282 -0.70824,0.472159 -0.26981,0.286668 -0.38785,0.6745129 -0.11804,0.38784495 -0.11804,0.82627834 0,0.5227475 -0.11804,0.99490654 -0.10117,0.47215902 -0.38784,0.84314112 -0.26981,0.3541193 -0.75883,0.573336 -0.47216,0.2192167 -1.23098,0.2192167 -0.57334,0 -1.06236,-0.1686282 -0.47216,-0.1854911 -0.80942,-0.4890219 -0.33725,-0.3203936 -0.53961,-0.74196421 -0.18549,-0.43843339 -0.18549,-0.92745524 0,-0.94431805 0.64079,-1.73687075 0.64079,-0.8094155 1.72001,-1.3996143 1.09608,-0.5901988 2.51256,-0.9105924 1.43334,-0.3372565 3.01844,-0.3372565 1.93923,0 3.33884,0.3541193 1.41648,0.3541193 2.32707,0.9949066 0.91059,0.6407872 1.34903,1.5513796 0.43843,0.91059247 0.43843,2.04040159 z" />
      <path
         inkscape:connector-curvature="0"
         id="path1019"
         style="font-style:normal;font-variant:normal;font-weight:normal;font-stretch:normal;font-size:34.53506088px;line-height:1.25;font-family:'Tamil MN';-inkscape-font-specification:'Tamil MN';letter-spacing:0px;word-spacing:0px;fill:#000000;fill-opacity:1;stroke:none;stroke-width:0.18500924"
         d="m 490.84931,14.029865 h -5.48042 V -4.0639435 h 5.48042 v 1.3490258 q 0.91059,-0.9274552 2.00668,-1.5007912 1.09608,-0.573336 2.32707,-0.573336 0.74196,0 1.38275,0.2023539 0.65765,0.1854911 1.12981,0.5227475 0.48902,0.3372565 0.75882,0.7756899 0.28667,0.4384333 0.28667,0.944318 0,0.4890219 -0.18549,0.8937296 -0.18549,0.387845 -0.52275,0.67451294 -0.32039,0.28666798 -0.75882,0.45529621 -0.42158,0.1517654 -0.9106,0.1517654 -0.65765,0 -1.07922,-0.20235387 -0.42157,-0.20235387 -0.75882,-0.45529621 -0.33726,-0.25294237 -0.70824,-0.45529617 -0.35412,-0.2023539 -0.87687,-0.2023539 -0.26981,0 -0.55647,0.2192167 -0.26981,0.2023539 -0.53961,0.55647313 -0.26981,0.33725645 -0.52275,0.79255266 -0.25294,0.45529622 -0.47216,0.92745521 z" />
      <path
         inkscape:connector-curvature="0"
         id="path1021"
         style="font-style:normal;font-variant:normal;font-weight:normal;font-stretch:normal;font-size:34.53506088px;line-height:1.25;font-family:'Tamil MN';-inkscape-font-specification:'Tamil MN';letter-spacing:0px;word-spacing:0px;fill:#000000;fill-opacity:1;stroke:none;stroke-width:0.18500924"
         d="m 512.01212,1.6356906 q 0,-0.69137575 -0.15176,-1.23098607 -0.15177,-0.53961033 -0.40471,-0.89372961 -0.25294,-0.3709821 -0.5902,-0.55647312 -0.32039,-0.1854911 -0.67451,-0.1854911 -0.35412,0 -0.82628,0.1517654 -0.4553,0.13490261 -0.96118,0.40470777 -0.50589,0.25294234 -1.02863,0.62392444 -0.52275,0.3709821 -1.01177,0.82627832 V 14.029865 h -5.51415 V -4.0639435 h 5.51415 v 1.4164771 q 1.26471,-0.9274552 2.71491,-1.3490258 1.4502,-0.4384334 2.90041,-0.4384334 1.11294,0 2.10785,0.4384334 1.01177,0.4215706 1.75373,1.1803976 0.75883,0.7419642 1.19726,1.7537336 0.4553,0.99490649 0.4553,2.1415784 V 14.029865 h -5.48042 z" />
      <path
         inkscape:connector-curvature="0"
         id="path1023"
         style="font-style:normal;font-variant:normal;font-weight:normal;font-stretch:normal;font-size:34.53506088px;line-height:1.25;font-family:'Tamil MN';-inkscape-font-specification:'Tamil MN';letter-spacing:0px;word-spacing:0px;fill:#000000;fill-opacity:1;stroke:none;stroke-width:0.18500924"
         d="m 522.11296,-3.0858998 5.48041,-1.517654 V 14.029865 h -5.48041 z m -0.23608,-6.7619919 q 0,-0.5564733 0.21921,-1.0454953 0.23608,-0.489022 0.64079,-0.843141 0.40471,-0.370982 0.94432,-0.573336 0.53961,-0.219216 1.14667,-0.219216 0.60706,0 1.14667,0.219216 0.53961,0.202354 0.94432,0.573336 0.40471,0.354119 0.64079,0.843141 0.23608,0.489022 0.23608,1.0454953 0,0.5564732 -0.23608,1.045495 -0.23608,0.4890219 -0.64079,0.8431412 -0.40471,0.3541192 -0.94432,0.5733359 -0.53961,0.2023539 -1.14667,0.2023539 -0.60706,0 -1.14667,-0.2023539 -0.53961,-0.2192167 -0.94432,-0.5733359 -0.40471,-0.3541193 -0.64079,-0.8431412 -0.21921,-0.4890218 -0.21921,-1.045495 z" />
      <path
         inkscape:connector-curvature="0"
         id="path1025"
         style="font-style:normal;font-variant:normal;font-weight:normal;font-stretch:normal;font-size:34.53506088px;line-height:1.25;font-family:'Tamil MN';-inkscape-font-specification:'Tamil MN';letter-spacing:0px;word-spacing:0px;fill:#000000;fill-opacity:1;stroke:none;stroke-width:0.18500924"
         d="m 543.3433,1.6356906 q 0,-0.69137575 -0.15177,-1.23098607 -0.15176,-0.53961033 -0.4047,-0.89372961 -0.25295,-0.3709821 -0.5902,-0.55647312 -0.3204,-0.1854911 -0.67452,-0.1854911 -0.35411,0 -0.82627,0.1517654 -0.4553,0.13490261 -0.96118,0.40470777 -0.50589,0.25294234 -1.02864,0.62392444 -0.52274,0.3709821 -1.01177,0.82627832 V 14.029865 h -5.51414 V -4.0639435 h 5.51414 v 1.4164771 q 1.26472,-0.9274552 2.71492,-1.3490258 1.4502,-0.4384334 2.9004,-0.4384334 1.11295,0 2.10786,0.4384334 1.01177,0.4215706 1.75373,1.1803976 0.75883,0.7419642 1.19726,1.7537336 0.4553,0.99490649 0.4553,2.1415784 V 14.029865 h -5.48042 z" />
      <path
         inkscape:connector-curvature="0"
         id="path1028"
         style="font-style:normal;font-variant:normal;font-weight:normal;font-stretch:normal;font-size:34.53506088px;line-height:1.25;font-family:'Tamil MN';-inkscape-font-specification:'Tamil MN';letter-spacing:0px;word-spacing:0px;fill:#000000;fill-opacity:1;stroke:none;stroke-width:0.18500924"
         d="m 573.0556,-2.8666831 v 1.90549899 h -3.32198 q 0.43843,0.67451291 0.70824,1.45020275 0.2698,0.77568986 0.2698,1.68628226 0,1.5007912 -0.69137,2.6811888 -0.67452,1.1803976 -1.9055,1.9898131 -1.23099,0.8094155 -2.951,1.2478489 -1.70314,0.4215705 -3.77727,0.4215705 -0.5902,0 -1.23098,-0.067451 -0.64079,-0.084314 -1.16354,-0.1854911 -0.35412,0.286668 -0.57333,0.6913757 -0.20236,0.387845 -0.20236,0.8262783 0,0.1349026 0.0675,0.2529419 0.0843,0.11804 0.37098,0.23608 0.28667,0.101177 0.82628,0.202354 0.55648,0.08431 1.48393,0.168628 0.92746,0.08431 2.31021,0.168628 1.39961,0.06745 3.3557,0.134903 1.80432,0.06745 3.03531,0.387845 1.23098,0.30353 1.97295,0.826278 0.75883,0.505885 1.07922,1.214123 0.33726,0.691376 0.33726,1.55138 0,1.517654 -0.80942,2.74864 -0.80942,1.230986 -2.32707,2.09099 -1.51765,0.860004 -3.70982,1.332163 -2.19217,0.472159 -4.94081,0.472159 -2.47883,0 -4.33374,-0.269805 -1.85491,-0.252942 -3.10276,-0.741964 -1.23099,-0.472159 -1.85491,-1.146672 -0.60706,-0.674513 -0.60706,-1.500792 0,-0.607061 0.35411,-1.19726 0.35412,-0.590199 0.9106,-1.180398 0.57333,-0.573335 1.28157,-1.129809 0.7251,-0.556473 1.46707,-1.112946 -1.0455,-0.354119 -1.68629,-0.876867 -0.62392,-0.53961 -0.62392,-1.214123 0,-0.472159 0.28667,-0.978044 0.28667,-0.5058841 0.77569,-0.994906 0.50588,-0.4890219 1.16353,-0.9274553 0.65765,-0.4384333 1.41648,-0.7756898 -0.89373,-0.4047077 -1.60197,-0.8937296 -0.70824,-0.4890219 -1.21412,-1.1129463 -0.48902,-0.6239244 -0.75883,-1.3996143 -0.2698,-0.7756898 -0.2698,-1.7537335 0,-1.53451691 0.67451,-2.73177732 0.69138,-1.19726038 1.88864,-2.02353868 1.19726,-0.8262784 2.81609,-1.2478489 1.63569,-0.4215706 3.52433,-0.4215706 0.89373,0 1.75373,0.1011769 0.87687,0.084314 1.63569,0.2529424 0.75883,0.1686282 1.34903,0.3878449 0.60706,0.2023539 0.96118,0.4552962 z m -7.08239,17.1157651 q -1.23099,0 -2.46197,-0.05059 -1.23099,-0.03372 -2.34393,-0.101176 -1.09609,-0.06745 -1.98982,-0.134903 -0.89373,-0.08431 -1.4502,-0.151765 -0.5902,0.472159 -0.91059,1.146672 -0.30353,0.691375 -0.30353,1.349025 0,0.505885 0.38784,0.961181 0.38785,0.472159 1.16354,0.826279 0.77569,0.354119 1.92236,0.556473 1.16353,0.219216 2.69805,0.219216 1.66942,0 2.98472,-0.252942 1.3153,-0.236079 2.22589,-0.623924 0.92746,-0.387845 1.39962,-0.876867 0.48902,-0.489022 0.48902,-0.978044 0,-0.489022 -0.26981,-0.860004 -0.2698,-0.354119 -0.77569,-0.590199 -0.48902,-0.219216 -1.19726,-0.337256 -0.69137,-0.101177 -1.56824,-0.101176 z m -3.96276,-7.1666997 q 0.60706,0 1.16353,-0.3372564 0.57334,-0.3372565 1.01177,-0.9105925 0.4553,-0.5733359 0.70824,-1.2984373 0.2698,-0.7419642 0.2698,-1.5345169 0,-1.1635347 -0.30353,-2.19216693 -0.30353,-1.02863218 -0.82627,-1.78745921 -0.52275,-0.77568986 -1.21413,-1.21412326 -0.69137,-0.4552962 -1.46706,-0.4552962 -0.74197,0 -1.26472,0.3541193 -0.52274,0.3541193 -0.87686,0.9611809 -0.33726,0.59019878 -0.50589,1.38275145 -0.15176,0.79255267 -0.15176,1.68628225 0,1.0792207 0.23608,2.0572644 0.25294,0.9611809 0.70824,1.7031451 0.45529,0.7251014 1.09608,1.1635347 0.64079,0.4215706 1.41648,0.4215706 z" />
    </g>
  </g>
</svg>
