<?xml version="1.0" encoding="UTF-8" standalone="no"?>
<svg
   xmlns:dc="http://purl.org/dc/elements/1.1/"
   xmlns:cc="http://creativecommons.org/ns#"
   xmlns:rdf="http://www.w3.org/1999/02/22-rdf-syntax-ns#"
   xmlns:svg="http://www.w3.org/2000/svg"
   xmlns="http://www.w3.org/2000/svg"
   xmlns:sodipodi="http://sodipodi.sourceforge.net/DTD/sodipodi-0.dtd"
   xmlns:inkscape="http://www.inkscape.org/namespaces/inkscape"
   height="231.45348"
   width="2886.1719"
   id="svg3009"
   version="1.1"
   viewBox="-22.97106 -24.6679 478.82197 42.821032"
   sodipodi:docname="Scientific-Programming-in-Julia-logo-dark.svg"
   inkscape:version="0.92.5 (2060ec1f9f, 2020-04-08)">
  <metadata
     id="metadata27">
    <rdf:RDF>
      <cc:Work
         rdf:about="">
        <dc:format>image/svg+xml</dc:format>
        <dc:type
           rdf:resource="http://purl.org/dc/dcmitype/StillImage" />
        <dc:title></dc:title>
      </cc:Work>
    </rdf:RDF>
  </metadata>
  <sodipodi:namedview
     pagecolor="#ffffff"
     bordercolor="#666666"
     borderopacity="1"
     objecttolerance="10"
     gridtolerance="10"
     guidetolerance="10"
     inkscape:pageopacity="0"
     inkscape:pageshadow="2"
     inkscape:window-width="1920"
     inkscape:window-height="976"
     id="namedview25"
     showgrid="false"
     fit-margin-top="0"
     fit-margin-left="0"
     fit-margin-right="0"
     fit-margin-bottom="0"
     inkscape:zoom="0.28916667"
     inkscape:cx="1335.5272"
     inkscape:cy="573.49147"
     inkscape:window-x="1920"
     inkscape:window-y="27"
     inkscape:window-maximized="1"
     inkscape:current-layer="svg3009" />
  <defs
     id="defs2985">
    <style
       id="style2983">.cls-1{fill:#1a1a1a}</style>
  </defs>
  <g
     id="g2092"
     transform="translate(1.8500924,1.4977799e-6)">
    <g
       transform="translate(-2.5428971)"
       id="g2040">
      <flowRoot
         xml:space="preserve"
         id="flowRoot29"
         style="font-style:normal;font-variant:normal;font-weight:normal;font-stretch:normal;font-size:40px;line-height:1.25;font-family:'Tamil MN';-inkscape-font-specification:'Tamil MN';letter-spacing:0px;word-spacing:0px;fill:#ffffff;fill-opacity:1;stroke:none"
         transform="matrix(0.18500925,0,0,0.18500925,533.39366,-131.40441)"><flowRegion
           id="flowRegion31"
           style="font-style:normal;font-variant:normal;font-weight:normal;font-stretch:normal;font-family:'Tamil MN';-inkscape-font-specification:'Tamil MN';fill:#ffffff;fill-opacity:1"><rect
             id="rect33"
             width="1047.8386"
             height="636.31122"
             x="-1289.9136"
             y="-652.44958"
             style="font-style:normal;font-variant:normal;font-weight:normal;font-stretch:normal;font-family:'Tamil MN';-inkscape-font-specification:'Tamil MN';fill:#ffffff;fill-opacity:1" /></flowRegion><flowPara
           id="flowPara35" /></flowRoot>      <flowRoot
         xml:space="preserve"
         id="flowRoot1011"
         style="font-style:normal;font-variant:normal;font-weight:normal;font-stretch:normal;font-size:40px;line-height:1.25;font-family:MN;-inkscape-font-specification:MN;letter-spacing:0px;word-spacing:0px;fill:#ffffff;fill-opacity:1;stroke:none"
         transform="matrix(0.18500924,0,0,0.18500924,365.98721,-119.93368)"><flowRegion
           id="flowRegion1013"
           style="fill:#ffffff;fill-opacity:1"><rect
             id="rect1015"
             width="658.78961"
             height="382.13257"
             x="70.893372"
             y="595.3894"
             style="fill:#ffffff;fill-opacity:1" /></flowRegion><flowPara
           id="flowPara1017" /></flowRoot>      <flowRoot
         xml:space="preserve"
         id="flowRoot887"
         style="font-style:normal;font-variant:normal;font-weight:normal;font-stretch:normal;font-size:40px;line-height:1.25;font-family:MN;-inkscape-font-specification:MN;letter-spacing:0px;word-spacing:0px;fill:#ffffff;fill-opacity:1;stroke:none"
         transform="matrix(0.18500924,0,0,0.18500924,396.77706,-28.156809)"><flowRegion
           id="flowRegion889"
           style="fill:#ffffff;fill-opacity:1"><rect
             id="rect891"
             width="178.5088"
             height="166.28217"
             x="335.00967"
             y="394.71164"
             style="fill:#ffffff;fill-opacity:1" /></flowRegion><flowPara
           id="flowPara893" /></flowRoot>      <path
         style="fill:#ca3c32;stroke-width:0.41092291"
         inkscape:connector-curvature="0"
         id="path13-3"
         d="m 460.68317,-9.7391395 a 3.6572138,3.6572138 0 1 1 3.66133,-3.6572185 3.661323,3.661323 0 0 1 -3.66133,3.6572185 z" />
      <path
         style="fill:#9259a3;stroke-width:0.41092291"
         inkscape:connector-curvature="0"
         id="path25-5"
         d="m 469.47282,-9.7391395 a 3.6572138,3.6572138 0 1 1 3.66133,-3.6572185 3.661323,3.661323 0 0 1 -3.66133,3.6572185 z" />
      <path
         style="fill:#399746;stroke-width:0.41092291"
         inkscape:connector-curvature="0"
         id="path31-6"
         d="m 465.08005,-17.353472 a 3.6572138,3.6572138 0 1 1 3.65722,-3.657219 3.6531046,3.6531046 0 0 1 -3.65722,3.657219 z" />
      <path
         style="font-style:normal;font-variant:normal;font-weight:normal;font-stretch:normal;font-size:186.66667175px;line-height:1.25;font-family:'Tamil MN';-inkscape-font-specification:'Tamil MN';letter-spacing:0px;word-spacing:0px;fill:#4d64ae;fill-opacity:1;stroke:none;stroke-width:0.22862896"
         d="m 416.02176,-13.267248 q 0,-0.687669 0.2709,-1.291989 0.29174,-0.60432 0.79187,-1.04193 0.50012,-0.45845 1.16696,-0.70851 0.66683,-0.2709 1.41702,-0.2709 0.75019,0 1.41702,0.2709 0.66684,0.25006 1.16696,0.70851 0.50013,0.43761 0.79187,1.04193 0.29174,0.60432 0.29174,1.291989 0,0.68768 -0.29174,1.291991 -0.29174,0.604319 -0.79187,1.041933 -0.50012,0.43761 -1.16696,0.708513 -0.66683,0.2500625 -1.41702,0.2500625 -0.75019,0 -1.41702,-0.2500625 -0.66684,-0.270903 -1.16696,-0.708513 -0.50013,-0.437613 -0.79187,-1.041933 -0.2709,-0.604311 -0.2709,-1.291991 z"
         id="path1027"
         inkscape:connector-curvature="0" />
      <path
         inkscape:connector-curvature="0"
         id="path1764"
         style="font-style:normal;font-variant:normal;font-weight:normal;font-stretch:normal;font-size:34.53505707px;line-height:1.25;font-family:'Tamil MN';-inkscape-font-specification:'Tamil MN';letter-spacing:0px;word-spacing:0px;fill:#ffffff;fill-opacity:1;stroke:none;stroke-width:0.18500924"
         d="m -38.55265,10.96957 q -2.15844,0 -3.77727,-0.505885 -1.61883,-0.5058844 -2.76551,-1.3996144 -1.12981,-0.893729 -1.80432,-2.124715 -0.65765,-1.2309863 -0.91059,-2.6980517 h 4.0808 q 0.21922,0.8937295 0.62393,1.6862821 0.4047,0.7756896 1.02863,1.3490256 0.62392,0.573336 1.48393,0.910592 0.86,0.320394 1.98981,0.320394 0.75883,0 1.48393,-0.151765 0.74196,-0.168629 1.3153,-0.522748 0.5902,-0.354119 0.94432,-0.927455 0.35411,-0.5901987 0.35411,-1.4333398 0,-1.0792205 -0.55647,-1.9054987 -0.53961,-0.8262783 -1.4502,-1.5007911 -0.89373,-0.6913756 -2.05726,-1.2815744 -1.14668,-0.5901987 -2.34394,-1.1803974 -1.19726,-0.6070616 -2.36079,-1.2478488 -1.14667,-0.65765 -2.05727,-1.4670654 -0.89373,-0.8094154 -1.4502,-1.8211846 -0.53961,-1.0117693 -0.53961,-2.3270693 0,-1.4333398 0.62393,-2.6474629 0.62392,-1.2309862 1.80432,-2.1247152 1.19726,-0.89373 2.91727,-1.399614 1.72,-0.505885 3.91217,-0.505885 1.82118,0 3.28825,0.505885 1.46707,0.505884 2.58001,1.382751 1.12981,0.860004 1.88864,2.040401 0.77569,1.1803978 1.18039,2.5462862 h -3.70982 q -0.32039,-0.8600038 -0.74196,-1.6356936 -0.42157,-0.7756897 -1.04549,-1.3658886 -0.62393,-0.590199 -1.5008,-0.927455 -0.87686,-0.354119 -2.10785,-0.354119 -1.14667,0 -1.93922,0.303531 -0.79256,0.30353 -1.28158,0.775689 -0.48902,0.455296 -0.70824,1.0286324 -0.20235,0.5733359 -0.20235,1.129809 0,0.9611807 0.55647,1.7537333 0.57334,0.7756898 1.50079,1.4502026 0.94432,0.65765 2.12472,1.2815744 1.1804,0.6070615 2.41138,1.2309859 1.24785,0.6239244 2.42825,1.2984372 1.19726,0.6745129 2.12471,1.5007911 0.94432,0.8094154 1.5008,1.8043218 0.57333,0.9949064 0.57333,2.2427552 0,1.4670654 -0.60706,2.7317767 -0.60706,1.247849 -1.80432,2.192167 -1.1804,0.927455 -2.951,1.4670654 -1.75373,0.522748 -4.04707,0.522748 z" />
      <path
         inkscape:connector-curvature="0"
         id="path1766"
         style="font-style:normal;font-variant:normal;font-weight:normal;font-stretch:normal;font-size:34.53505707px;line-height:1.25;font-family:'Tamil MN';-inkscape-font-specification:'Tamil MN';letter-spacing:0px;word-spacing:0px;fill:#ffffff;fill-opacity:1;stroke:none;stroke-width:0.18500924"
         d="m -16.5804,-5.6571719 q -0.87686,0 -1.60196,0.4384333 -0.70824,0.4384334 -1.21413,1.1972603 -0.50588,0.7419641 -0.77569,1.7368705 -0.2698,0.9780436 -0.2698,2.074127 0,1.5176539 0.33725,2.9004052 0.35412,1.3827513 0.97805,2.445109 0.62392,1.0454949 1.50079,1.6694192 0.89373,0.623924 1.98981,0.623924 0.91059,0 1.6357,-0.370982 0.74196,-0.370982 1.33216,-0.994906 0.60706,-0.6407872 1.07922,-1.4839283 0.48902,-0.843141 0.91059,-1.787459 l 2.61374,0.6913757 q -0.4553,1.7705962 -1.26471,3.1702106 -0.80942,1.382751 -1.93923,2.343932 -1.11294,0.944318 -2.54628,1.4502024 -1.41648,0.489022 -3.0859,0.489022 -1.87177,0 -3.52433,-0.708238 -1.63569,-0.7251024 -2.86668,-1.9560884 -1.21412,-1.230985 -1.92236,-2.8666791 -0.70824,-1.6356936 -0.70824,-3.4737411 0,-2.0066756 0.75883,-3.7772718 0.75882,-1.787459 2.05726,-3.1196219 1.29844,-1.3490256 3.05217,-2.1247154 1.75374,-0.7756898 3.72669,-0.7756898 1.66942,0 3.01844,0.3372565 1.34903,0.3372564 2.29334,0.9443179 0.96119,0.6070616 1.46707,1.4333398 0.52275,0.8262782 0.52275,1.787459 0,0.4552962 -0.26981,0.8600039 -0.2698,0.4047077 -0.70824,0.7251013 -0.43843,0.3035307 -1.01177,0.4890218 -0.55647,0.1686282 -1.1298,0.1686282 -0.65765,0 -1.14668,-0.1854911 -0.48902,-0.185491 -0.82627,-0.4721589 -0.33726,-0.3035308 -0.50589,-0.6913757 -0.16863,-0.3878449 -0.16863,-0.7925526 0,-0.4047077 -0.0337,-0.8262782 -0.0337,-0.4384333 -0.20236,-0.7756897 -0.16863,-0.3541193 -0.53961,-0.573336 -0.35412,-0.2192166 -1.01177,-0.2192166 z" />
      <path
         inkscape:connector-curvature="0"
         style="font-style:normal;font-variant:normal;font-weight:normal;font-stretch:normal;font-size:34.53505707px;line-height:1.25;font-family:'Tamil MN';-inkscape-font-specification:'Tamil MN';letter-spacing:0px;word-spacing:0px;fill:#ffffff;fill-opacity:1;stroke:none;stroke-width:0.18500924"
         d="M -4.2874,-6.5171758 1.19302,-8.0348297 V 10.598588 H -4.2874 Z"
         id="path1875" />
      <path
         inkscape:connector-curvature="0"
         style="font-style:normal;font-variant:normal;font-weight:normal;font-stretch:normal;font-size:34.53505707px;line-height:1.25;font-family:'Tamil MN';-inkscape-font-specification:'Tamil MN';letter-spacing:0px;word-spacing:0px;fill:#ffffff;fill-opacity:1;stroke:none;stroke-width:0.18500924"
         d="m -4.52348,-13.279167 q 0,-0.556473 0.21922,-1.045494 0.23608,-0.489022 0.64078,-0.843141 0.40471,-0.370983 0.94432,-0.573336 0.53961,-0.219217 1.14667,-0.219217 0.60706,0 1.14668,0.219217 0.53961,0.202353 0.94431,0.573336 0.40471,0.354119 0.64079,0.843141 0.23608,0.489021 0.23608,1.045494 0,0.556473 -0.23608,1.045495 -0.23608,0.489022 -0.64079,0.843141 -0.4047,0.354119 -0.94431,0.573336 -0.53962,0.202354 -1.14668,0.202354 -0.60706,0 -1.14667,-0.202354 -0.53961,-0.219217 -0.94432,-0.573336 -0.4047,-0.354119 -0.64078,-0.843141 -0.21922,-0.489022 -0.21922,-1.045495 z"
         id="path1768" />
      <path
         inkscape:connector-curvature="0"
         id="path1770"
         style="font-style:normal;font-variant:normal;font-weight:normal;font-stretch:normal;font-size:34.53505707px;line-height:1.25;font-family:'Tamil MN';-inkscape-font-specification:'Tamil MN';letter-spacing:0px;word-spacing:0px;fill:#ffffff;fill-opacity:1;stroke:none;stroke-width:0.18500924"
         d="m 14.24484,11.003295 q -1.93922,0 -3.64237,-0.708238 Q 8.91619,9.5699556 7.65148,8.3558326 6.38677,7.1417086 5.66166,5.5397411 4.93656,3.9209103 4.93656,2.1334513 q 0,-2.1415782 0.67452,-3.9627629 0.67451,-1.8380475 1.9055,-3.1702103 1.23098,-1.3490257 2.96785,-2.1078526 1.73687,-0.758827 3.86159,-0.758827 1.88863,0 3.45688,0.6070616 1.5851,0.5901987 2.69805,1.6525564 1.12981,1.0454949 1.75373,2.4619719 0.62393,1.3996141 0.62393,3.0184449 H 10.33267 q 0.0506,1.5007911 0.42157,2.8666795 0.38784,1.3658885 1.02863,2.4113834 0.64079,1.0454949 1.50079,1.6694194 0.86,0.607061 1.9055,0.607061 0.91059,0 1.78746,-0.30353 0.87686,-0.320394 1.61883,-0.8600042 0.74196,-0.5564731 1.28157,-1.2815744 0.53961,-0.7251013 0.79256,-1.5345167 l 2.81609,0.4215705 q -0.42157,1.4670655 -1.36589,2.7655028 -0.92746,1.298437 -2.17531,2.276481 -1.24784,0.96118 -2.73177,1.5345164 -1.46707,0.556473 -2.96786,0.556473 z m 2.32707,-13.0012348 q -0.0675,-0.8094154 -0.35412,-1.4670654 -0.2698,-0.65765 -0.70824,-1.129809 -0.42157,-0.472159 -0.9949,-0.7251013 -0.55648,-0.2698051 -1.21413,-0.2698051 -0.50588,0 -0.9949,0.2529423 -0.48903,0.2529423 -0.89373,0.7251013 -0.40471,0.4721589 -0.69138,1.1466718 -0.2698,0.65765 -0.35412,1.4670654 z" />
      <path
         inkscape:connector-curvature="0"
         id="path1772"
         style="font-style:normal;font-variant:normal;font-weight:normal;font-stretch:normal;font-size:34.53505707px;line-height:1.25;font-family:'Tamil MN';-inkscape-font-specification:'Tamil MN';letter-spacing:0px;word-spacing:0px;fill:#ffffff;fill-opacity:1;stroke:none;stroke-width:0.18500924"
         d="m 38.02141,-1.795586 q 0,-0.6913756 -0.15176,-1.2309859 -0.15177,-0.5396102 -0.40471,-0.8937295 -0.25294,-0.370982 -0.5902,-0.5564731 -0.32039,-0.185491 -0.67451,-0.185491 -0.35412,0 -0.82628,0.1517654 -0.4553,0.1349026 -0.96118,0.4047077 -0.50588,0.2529423 -1.02863,0.6239244 -0.52275,0.370982 -1.01177,0.8262782 V 10.598588 H 26.85823 V -7.4952194 h 5.51414 v 1.416477 q 1.26471,-0.9274552 2.71491,-1.3490257 1.45021,-0.4384334 2.90041,-0.4384334 1.11294,0 2.10785,0.4384334 1.01177,0.4215705 1.75373,1.1803974 0.75883,0.7419642 1.19726,1.7537334 0.4553,0.9949064 0.4553,2.1415783 v 12.950647 h -5.48042 z" />
      <path
         inkscape:connector-curvature="0"
         id="path1774"
         style="font-style:normal;font-variant:normal;font-weight:normal;font-stretch:normal;font-size:34.53505707px;line-height:1.25;font-family:'Tamil MN';-inkscape-font-specification:'Tamil MN';letter-spacing:0px;word-spacing:0px;fill:#ffffff;fill-opacity:1;stroke:none;stroke-width:0.18500924"
         d="m 46.43597,-5.2861899 v -1.8211846 q 0.97804,0 1.83804,-0.4890218 0.87687,-0.4890218 1.56825,-1.3153 0.70823,-0.8431411 1.19726,-1.9560877 0.50588,-1.129809 0.75882,-2.39452 h 3.03531 v 5.7670846 h 4.46865 v 2.2090295 H 54.83365 V 6.399745 q 0,0.5396106 0.26981,0.9443176 0.28666,0.404708 0.77569,0.404708 0.28666,0 0.62392,-0.185491 0.33726,-0.202354 0.64079,-0.455296 0.30353,-0.252942 0.53961,-0.505885 0.25294,-0.2698049 0.35412,-0.4047075 l 1.88863,1.4839285 q -0.45529,0.708238 -1.01177,1.3153 -0.53961,0.607061 -1.24785,1.0623574 -0.70823,0.438434 -1.63569,0.691376 -0.91059,0.252942 -2.12471,0.252942 -1.14668,0 -2.00668,-0.337256 -0.84314,-0.320394 -1.41648,-0.8937294 -0.57333,-0.590199 -0.86,-1.399615 -0.28667,-0.826278 -0.28667,-1.821184 V -5.2861899 Z" />
      <path
         inkscape:connector-curvature="0"
         style="font-style:normal;font-variant:normal;font-weight:normal;font-stretch:normal;font-size:34.53505707px;line-height:1.25;font-family:'Tamil MN';-inkscape-font-specification:'Tamil MN';letter-spacing:0px;word-spacing:0px;fill:#ffffff;fill-opacity:1;stroke:none;stroke-width:0.18500924"
         d="m 62.67486,-6.5171758 5.48042,-1.5176539 V 10.598588 h -5.48042 z"
         id="path1863" />
      <path
         inkscape:connector-curvature="0"
         style="font-style:normal;font-variant:normal;font-weight:normal;font-stretch:normal;font-size:34.53505707px;line-height:1.25;font-family:'Tamil MN';-inkscape-font-specification:'Tamil MN';letter-spacing:0px;word-spacing:0px;fill:#ffffff;fill-opacity:1;stroke:none;stroke-width:0.18500924"
         d="m 62.43878,-13.279167 q 0,-0.556473 0.21922,-1.045494 0.23608,-0.489022 0.64078,-0.843141 0.40471,-0.370983 0.94432,-0.573336 0.53961,-0.219217 1.14667,-0.219217 0.60707,0 1.14668,0.219217 0.53961,0.202353 0.94431,0.573336 0.40471,0.354119 0.64079,0.843141 0.23608,0.489021 0.23608,1.045494 0,0.556473 -0.23608,1.045495 -0.23608,0.489022 -0.64079,0.843141 -0.4047,0.354119 -0.94431,0.573336 -0.53961,0.202354 -1.14668,0.202354 -0.60706,0 -1.14667,-0.202354 -0.53961,-0.219217 -0.94432,-0.573336 -0.4047,-0.354119 -0.64078,-0.843141 -0.21922,-0.489022 -0.21922,-1.045495 z"
         id="path1776" />
      <path
         inkscape:connector-curvature="0"
         id="path1778"
         style="font-style:normal;font-variant:normal;font-weight:normal;font-stretch:normal;font-size:34.53505707px;line-height:1.25;font-family:'Tamil MN';-inkscape-font-specification:'Tamil MN';letter-spacing:0px;word-spacing:0px;fill:#ffffff;fill-opacity:1;stroke:none;stroke-width:0.18500924"
         d="m 80.24592,-7.4952194 h 4.51923 v 2.2090295 H 80.24592 V 10.598588 H 74.7655 V -5.2861899 h -3.55805 v -2.2090295 h 3.55805 v -2.074127 q 0,-1.3996146 0.55647,-2.6643256 0.55648,-1.281574 1.55138,-2.242755 1.01177,-0.961181 2.37766,-1.534517 1.38275,-0.573335 3.03531,-0.573335 1.38275,0 2.39452,0.269805 1.01177,0.269805 1.65256,0.725101 0.64078,0.438433 0.94431,1.011769 0.3204,0.556473 0.3204,1.146672 0,0.455296 -0.18549,0.860004 -0.16863,0.404707 -0.48903,0.708238 -0.32039,0.303531 -0.74196,0.489022 -0.42157,0.168628 -0.92745,0.168628 -0.69138,0 -1.0455,-0.252942 -0.35412,-0.269805 -0.53961,-0.65765 -0.18549,-0.404708 -0.26981,-0.860004 -0.0675,-0.472159 -0.21921,-0.860004 -0.1349,-0.404707 -0.40471,-0.65765 -0.25294,-0.269805 -0.80941,-0.269805 -1.72001,0 -1.72001,2.967856 z" />
      <path
         inkscape:connector-curvature="0"
         style="font-style:normal;font-variant:normal;font-weight:normal;font-stretch:normal;font-size:34.53505707px;line-height:1.25;font-family:'Tamil MN';-inkscape-font-specification:'Tamil MN';letter-spacing:0px;word-spacing:0px;fill:#ffffff;fill-opacity:1;stroke:none;stroke-width:0.18500924"
         d="m 87.95223,-6.5171758 5.48042,-1.5176539 V 10.598588 h -5.48042 z"
         id="path1859" />
      <path
         inkscape:connector-curvature="0"
         style="font-style:normal;font-variant:normal;font-weight:normal;font-stretch:normal;font-size:34.53505707px;line-height:1.25;font-family:'Tamil MN';-inkscape-font-specification:'Tamil MN';letter-spacing:0px;word-spacing:0px;fill:#ffffff;fill-opacity:1;stroke:none;stroke-width:0.18500924"
         d="m 87.71616,-13.279167 q 0,-0.556473 0.21921,-1.045494 0.23608,-0.489022 0.64079,-0.843141 0.40471,-0.370983 0.94432,-0.573336 0.53961,-0.219217 1.14667,-0.219217 0.60706,0 1.14667,0.219217 0.53961,0.202353 0.94432,0.573336 0.40471,0.354119 0.64079,0.843141 0.23608,0.489021 0.23608,1.045494 0,0.556473 -0.23608,1.045495 -0.23608,0.489022 -0.64079,0.843141 -0.40471,0.354119 -0.94432,0.573336 -0.53961,0.202354 -1.14667,0.202354 -0.60706,0 -1.14667,-0.202354 -0.53961,-0.219217 -0.94432,-0.573336 -0.40471,-0.354119 -0.64079,-0.843141 -0.21921,-0.489022 -0.21921,-1.045495 z"
         id="path1780" />
      <path
         inkscape:connector-curvature="0"
         id="path1782"
         style="font-style:normal;font-variant:normal;font-weight:normal;font-stretch:normal;font-size:34.53505707px;line-height:1.25;font-family:'Tamil MN';-inkscape-font-specification:'Tamil MN';letter-spacing:0px;word-spacing:0px;fill:#ffffff;fill-opacity:1;stroke:none;stroke-width:0.18500924"
         d="m 106.51819,-5.6571719 q -0.87687,0 -1.60197,0.4384333 -0.70824,0.4384334 -1.21412,1.1972603 -0.50589,0.7419641 -0.77569,1.7368705 -0.26981,0.9780436 -0.26981,2.074127 0,1.5176539 0.33726,2.9004052 0.35412,1.3827513 0.97804,2.445109 0.62393,1.0454949 1.5008,1.6694192 0.89373,0.623924 1.98981,0.623924 0.91059,0 1.63569,-0.370982 0.74197,-0.370982 1.33216,-0.994906 0.60707,-0.6407872 1.07923,-1.4839283 0.48902,-0.843141 0.91059,-1.787459 l 2.61373,0.6913757 q -0.45529,1.7705962 -1.26471,3.1702106 -0.80941,1.382751 -1.93922,2.343932 -1.11295,0.944318 -2.54629,1.4502024 -1.41647,0.489022 -3.08589,0.489022 -1.87178,0 -3.52433,-0.708238 -1.6357,-0.7251024 -2.86668,-1.9560884 -1.21413,-1.230985 -1.92236,-2.8666791 -0.70824,-1.6356936 -0.70824,-3.4737411 0,-2.0066756 0.75882,-3.7772718 0.75883,-1.787459 2.05727,-3.1196219 1.29844,-1.3490256 3.05217,-2.1247154 1.75373,-0.7756898 3.72668,-0.7756898 1.66942,0 3.01845,0.3372565 1.34902,0.3372564 2.29334,0.9443179 0.96118,0.6070616 1.46707,1.4333398 0.52274,0.8262782 0.52274,1.787459 0,0.4552962 -0.2698,0.8600039 -0.26981,0.4047077 -0.70824,0.7251013 -0.43843,0.3035307 -1.01177,0.4890218 -0.55647,0.1686282 -1.12981,0.1686282 -0.65765,0 -1.14667,-0.1854911 -0.48902,-0.185491 -0.82628,-0.4721589 -0.33725,-0.3035308 -0.50588,-0.6913757 -0.16863,-0.3878449 -0.16863,-0.7925526 0,-0.4047077 -0.0337,-0.8262782 -0.0337,-0.4384333 -0.20235,-0.7756897 -0.16863,-0.3541193 -0.53961,-0.573336 -0.35412,-0.2192166 -1.01177,-0.2192166 z" />
      <path
         inkscape:connector-curvature="0"
         id="path1784"
         style="font-style:normal;font-variant:normal;font-weight:normal;font-stretch:normal;font-size:34.53505707px;line-height:1.25;font-family:'Tamil MN';-inkscape-font-specification:'Tamil MN';letter-spacing:0px;word-spacing:0px;fill:#ffffff;fill-opacity:1;stroke:none;stroke-width:0.18500924"
         d="m 128.94575,-13.41407 h 8.36396 q 2.02354,0 3.77727,0.438434 1.7706,0.42157 3.06904,1.264711 1.29843,0.843141 2.0404,2.107853 0.75882,1.2647116 0.75882,2.9509936 0,1.7031449 -0.74196,2.9678565 -0.74196,1.2647116 -1.95609,2.1078526 -1.19726,0.8431411 -2.74864,1.2647116 -1.55138,0.4215705 -3.17021,0.4215705 H 134.8646 V 10.598588 h -5.91885 z m 5.91885,11.3486789 h 1.92236 q 0.99491,0 1.73687,-0.3541192 0.75883,-0.3709821 1.24785,-0.9949065 0.50589,-0.6239243 0.74197,-1.4333397 0.25294,-0.8262782 0.25294,-1.7200078 0,-1.0792205 -0.32039,-1.9223615 -0.3204,-0.8431411 -0.89373,-1.416477 -0.55648,-0.5733362 -1.3153,-0.8768662 -0.75883,-0.303531 -1.61883,-0.303531 h -1.75374 z" />
      <path
         inkscape:connector-curvature="0"
         id="path1786"
         style="font-style:normal;font-variant:normal;font-weight:normal;font-stretch:normal;font-size:34.53505707px;line-height:1.25;font-family:'Tamil MN';-inkscape-font-specification:'Tamil MN';letter-spacing:0px;word-spacing:0px;fill:#ffffff;fill-opacity:1;stroke:none;stroke-width:0.18500924"
         d="m 156.48273,10.598588 h -5.48041 V -7.4952194 h 5.48041 v 1.3490257 q 0.91059,-0.9274552 2.00668,-1.5007911 1.09608,-0.5733359 2.32707,-0.5733359 0.74196,0 1.38275,0.2023539 0.65765,0.185491 1.12981,0.5227474 0.48902,0.3372564 0.75882,0.7756898 0.28667,0.4384333 0.28667,0.9443179 0,0.4890218 -0.18549,0.8937295 -0.18549,0.3878449 -0.52275,0.6745129 -0.32039,0.2866679 -0.75882,0.4552961 -0.42157,0.1517654 -0.9106,0.1517654 -0.65765,0 -1.07922,-0.2023538 -0.42157,-0.2023539 -0.75882,-0.4552962 -0.33726,-0.2529423 -0.70824,-0.4552962 -0.35412,-0.2023538 -0.87687,-0.2023538 -0.2698,0 -0.55647,0.2192167 -0.26981,0.2023538 -0.53961,0.5564731 -0.26981,0.3372564 -0.52275,0.7925525 -0.25294,0.4552962 -0.47216,0.9274552 z" />
      <path
         inkscape:connector-curvature="0"
         id="path1788"
         style="font-style:normal;font-variant:normal;font-weight:normal;font-stretch:normal;font-size:34.53505707px;line-height:1.25;font-family:'Tamil MN';-inkscape-font-specification:'Tamil MN';letter-spacing:0px;word-spacing:0px;fill:#ffffff;fill-opacity:1;stroke:none;stroke-width:0.18500924"
         d="m 175.21733,10.935844 q -2.15844,0 -3.99649,-0.708238 -1.83805,-0.7082394 -3.17021,-1.9392254 -1.33216,-1.247848 -2.09099,-2.9341305 -0.74196,-1.6862821 -0.74196,-3.6255065 0,-2.0909898 0.74196,-3.8447232 0.75883,-1.7705961 2.09099,-3.0353077 1.33216,-1.2815744 3.15335,-1.9898129 1.83805,-0.7251013 3.99649,-0.7251013 2.15844,0 3.99648,0.7082385 1.85492,0.6913757 3.18708,1.9223616 1.34902,1.2309859 2.10785,2.8835424 0.75883,1.6525564 0.75883,3.5580552 0,2.0066756 -0.75883,3.7772718 -0.75883,1.7705966 -2.10785,3.1027586 -1.33216,1.3153 -3.17021,2.0909904 -1.83805,0.758827 -3.99649,0.758827 z m 0.64079,-2.2090294 q 0.75882,0 1.38275,-0.489022 0.64078,-0.489022 1.09608,-1.3153 0.4553,-0.8262784 0.70824,-1.9054989 0.2698,-1.0792206 0.2698,-2.259618 0,-1.7368706 -0.25294,-3.2713873 -0.25294,-1.5345167 -0.84314,-2.6811885 -0.57333,-1.1466718 -1.51765,-1.8211846 -0.92746,-0.6745129 -2.27648,-0.6745129 -0.64079,0 -1.24785,0.4890218 -0.5902,0.472159 -1.0455,1.2815744 -0.45529,0.8094154 -0.74196,1.8717731 -0.26981,1.0623577 -0.26981,2.2258924 0,1.7537333 0.3204,3.3051129 0.32039,1.5513795 0.92745,2.7149141 0.62393,1.1635345 1.50079,1.8549105 0.87687,0.674513 1.98982,0.674513 z" />
      <path
         inkscape:connector-curvature="0"
         id="path1790"
         style="font-style:normal;font-variant:normal;font-weight:normal;font-stretch:normal;font-size:34.53505707px;line-height:1.25;font-family:'Tamil MN';-inkscape-font-specification:'Tamil MN';letter-spacing:0px;word-spacing:0px;fill:#ffffff;fill-opacity:1;stroke:none;stroke-width:0.18500924"
         d="m 208.3865,-6.2979591 v 1.9054987 h -3.32198 q 0.43843,0.6745129 0.70824,1.4502026 0.2698,0.7756898 0.2698,1.6862821 0,1.5007911 -0.69137,2.6811885 -0.67452,1.1803975 -1.9055,1.9898129 -1.23099,0.8094154 -2.951,1.2478487 -1.70314,0.4215705 -3.77727,0.4215705 -0.5902,0 -1.23098,-0.067451 -0.64079,-0.084314 -1.16354,-0.1854911 -0.35412,0.286668 -0.57333,0.6913757 -0.20236,0.3878449 -0.20236,0.8262782 0,0.1349026 0.0675,0.2529419 0.0843,0.11804 0.37099,0.23608 0.28666,0.101177 0.82627,0.202354 0.55648,0.08431 1.48393,0.168628 0.92746,0.08431 2.31021,0.168628 1.39961,0.06745 3.3557,0.134903 1.80432,0.06745 3.03531,0.387844 1.23098,0.303531 1.97295,0.826279 0.75883,0.505884 1.07922,1.214123 0.33726,0.6913754 0.33726,1.5513794 0,1.517654 -0.80942,2.74864 -0.80942,1.230986 -2.32707,2.09099 -1.51765,0.860004 -3.70982,1.332163 -2.19217,0.472159 -4.94081,0.472159 -2.47883,0 -4.33374,-0.269805 -1.85491,-0.252943 -3.10276,-0.741965 -1.23099,-0.472159 -1.85491,-1.146671 -0.60706,-0.674513 -0.60706,-1.500791 0,-0.607062 0.35412,-1.197261 0.35412,-0.590198 0.91059,-1.180397 0.57333,-0.573336 1.28157,-1.129809 0.7251,-0.556473 1.46707,-1.1129464 -1.0455,-0.35412 -1.68628,-0.876867 -0.62393,-0.53961 -0.62393,-1.214123 0,-0.472159 0.28667,-0.978044 0.28667,-0.5058842 0.77569,-0.994906 0.50588,-0.4890218 1.16353,-0.9274551 0.65765,-0.4384334 1.41648,-0.7756898 -0.89373,-0.4047077 -1.60197,-0.8937295 -0.70823,-0.4890218 -1.21412,-1.1129462 -0.48902,-0.6239243 -0.75883,-1.3996141 -0.2698,-0.7756898 -0.2698,-1.7537334 0,-1.5345167 0.67451,-2.7317769 0.69138,-1.1972603 1.88864,-2.0235385 1.19726,-0.8262783 2.81609,-1.2478488 1.63569,-0.4215705 3.52433,-0.4215705 0.89373,0 1.75373,0.1011769 0.87687,0.084314 1.63569,0.2529423 0.75883,0.1686282 1.34903,0.3878449 0.60706,0.2023539 0.96118,0.4552962 z m -7.08239,17.1157631 q -1.23099,0 -2.46197,-0.05059 -1.23099,-0.03373 -2.34393,-0.101177 -1.09609,-0.06745 -1.98982,-0.134903 -0.89373,-0.08431 -1.4502,-0.151765 -0.5902,0.472159 -0.91059,1.146672 -0.30353,0.691376 -0.30353,1.349026 0,0.505884 0.38784,0.96118 0.38785,0.472159 1.16354,0.826279 0.77569,0.354119 1.92236,0.556473 1.16353,0.219216 2.69805,0.219216 1.66942,0 2.98472,-0.252942 1.3153,-0.236079 2.22589,-0.623924 0.92746,-0.387845 1.39962,-0.876867 0.48902,-0.489022 0.48902,-0.978044 0,-0.489021 -0.26981,-0.860004 -0.2698,-0.354119 -0.77569,-0.590198 -0.48902,-0.219217 -1.19726,-0.337257 -0.69137,-0.101177 -1.56824,-0.101177 z m -3.96276,-7.1666988 q 0.60706,0 1.16353,-0.3372564 0.57334,-0.3372565 1.01177,-0.9105924 0.4553,-0.5733359 0.70824,-1.2984372 0.2698,-0.7419641 0.2698,-1.5345167 0,-1.1635346 -0.30353,-2.1921667 -0.30353,-1.028632 -0.82627,-1.787459 -0.52275,-0.7756897 -1.21413,-1.2141231 -0.69137,-0.4552961 -1.46706,-0.4552961 -0.74197,0 -1.26471,0.3541192 -0.52275,0.3541192 -0.87687,0.9611808 -0.33726,0.5901987 -0.50589,1.3827513 -0.15176,0.7925526 -0.15176,1.6862821 0,1.0792205 0.23608,2.0572641 0.25294,0.9611808 0.70824,1.7031449 0.45529,0.7251013 1.09608,1.1635347 0.64079,0.4215705 1.41648,0.4215705 z" />
      <path
         inkscape:connector-curvature="0"
         id="path1792"
         style="font-style:normal;font-variant:normal;font-weight:normal;font-stretch:normal;font-size:34.53505707px;line-height:1.25;font-family:'Tamil MN';-inkscape-font-specification:'Tamil MN';letter-spacing:0px;word-spacing:0px;fill:#ffffff;fill-opacity:1;stroke:none;stroke-width:0.18500924"
         d="m 217.59359,10.598588 h -5.48042 V -7.4952194 h 5.48042 v 1.3490257 q 0.91059,-0.9274552 2.00667,-1.5007911 1.09609,-0.5733359 2.32707,-0.5733359 0.74197,0 1.38275,0.2023539 0.65765,0.185491 1.12981,0.5227474 0.48902,0.3372564 0.75883,0.7756898 0.28667,0.4384333 0.28667,0.9443179 0,0.4890218 -0.18549,0.8937295 -0.18549,0.3878449 -0.52275,0.6745129 -0.32039,0.2866679 -0.75883,0.4552961 -0.42157,0.1517654 -0.91059,0.1517654 -0.65765,0 -1.07922,-0.2023538 -0.42157,-0.2023539 -0.75883,-0.4552962 -0.33725,-0.2529423 -0.70824,-0.4552962 -0.35412,-0.2023538 -0.87686,-0.2023538 -0.26981,0 -0.55648,0.2192167 -0.2698,0.2023538 -0.53961,0.5564731 -0.2698,0.3372564 -0.52274,0.7925525 -0.25295,0.4552962 -0.47216,0.9274552 z" />
      <path
         inkscape:connector-curvature="0"
         id="path1794"
         style="font-style:normal;font-variant:normal;font-weight:normal;font-stretch:normal;font-size:34.53505707px;line-height:1.25;font-family:'Tamil MN';-inkscape-font-specification:'Tamil MN';letter-spacing:0px;word-spacing:0px;fill:#ffffff;fill-opacity:1;stroke:none;stroke-width:0.18500924"
         d="m 236.56426,1.2397218 q -0.79255,0.3372564 -1.60196,0.7925526 -0.80942,0.4384333 -1.46707,0.9780436 -0.65765,0.5227474 -1.07922,1.129809 -0.40471,0.5901987 -0.40471,1.2478487 0,0.5227475 0.1349,0.9949064 0.13491,0.4552965 0.37099,0.8094155 0.23608,0.337256 0.52274,0.53961 0.30353,0.202354 0.64079,0.202354 0.65765,0 1.34903,-0.404708 0.70823,-0.42157 1.53451,-1.0454945 z m 5.51415,9.3588662 h -5.51415 V 9.1483846 q -0.45529,0.387845 -0.89373,0.708239 -0.43843,0.3203934 -0.97804,0.5733364 -0.52275,0.236079 -1.19726,0.370982 -0.67451,0.134902 -1.60197,0.134902 -1.24785,0 -2.25962,-0.354119 -0.9949,-0.354119 -1.70314,-0.9780444 -0.69138,-0.640787 -1.06236,-1.500791 -0.37098,-0.860004 -0.37098,-1.85491 0,-1.0454949 0.38784,-1.8717731 0.40471,-0.8431411 1.07922,-1.5176539 0.69138,-0.6745128 1.60197,-1.2141231 0.92746,-0.5396103 1.97295,-0.9780436 1.06236,-0.4384334 2.19217,-0.8094154 1.12981,-0.3709821 2.22589,-0.7251013 l 0.60706,-0.1349026 v -1.8043218 q 0,-0.8600039 -0.18549,-1.4670654 -0.16863,-0.6070616 -0.48902,-0.9780436 -0.30353,-0.3878449 -0.75883,-0.5564731 -0.43843,-0.1686282 -0.9949,-0.1686282 -0.65765,0 -1.09609,0.1686282 -0.43843,0.1686282 -0.70824,0.472159 -0.2698,0.2866679 -0.38784,0.6745128 -0.11804,0.3878449 -0.11804,0.8262782 0,0.5227475 -0.11804,0.9949064 -0.10118,0.472159 -0.38784,0.8431411 -0.26981,0.3541192 -0.75883,0.5733359 -0.47216,0.2192167 -1.23099,0.2192167 -0.57333,0 -1.06235,-0.1686282 -0.47216,-0.1854911 -0.80942,-0.4890218 -0.33726,-0.3203936 -0.53961,-0.7419642 -0.18549,-0.4384333 -0.18549,-0.9274551 0,-0.944318 0.64079,-1.7368705 0.64078,-0.8094154 1.72,-1.3996142 1.09609,-0.5901987 2.51256,-0.9105923 1.43334,-0.3372564 3.01845,-0.3372564 1.93922,0 3.33884,0.3541192 1.41647,0.3541193 2.32707,0.9949064 0.91059,0.6407872 1.34902,1.5513796 0.43844,0.9105923 0.43844,2.0404013 z" />
      <path
         inkscape:connector-curvature="0"
         id="path1796"
         style="font-style:normal;font-variant:normal;font-weight:normal;font-stretch:normal;font-size:34.53505707px;line-height:1.25;font-family:'Tamil MN';-inkscape-font-specification:'Tamil MN';letter-spacing:0px;word-spacing:0px;fill:#ffffff;fill-opacity:1;stroke:none;stroke-width:0.18500924"
         d="m 269.19383,-1.694409 q 0,-0.6070616 -0.15176,-1.1466719 -0.13491,-0.5396102 -0.40471,-0.9443179 -0.25294,-0.4047077 -0.60706,-0.6407872 -0.35412,-0.2360795 -0.77569,-0.2360795 -0.47216,0 -0.99491,0.1686282 -0.50588,0.1517654 -1.01177,0.4215705 -0.48902,0.2698052 -0.94432,0.6239244 -0.45529,0.3541192 -0.77569,0.7588269 V 10.598588 h -5.46355 V -1.694409 q 0,-0.6070616 -0.16863,-1.1466719 -0.15176,-0.5396102 -0.42157,-0.9443179 -0.2698,-0.4047077 -0.62392,-0.6407872 -0.35412,-0.2360795 -0.72511,-0.2360795 -0.43843,0 -0.94431,0.1686282 -0.50589,0.1517654 -1.01177,0.4215705 -0.48902,0.2698052 -0.96118,0.6239244 -0.47216,0.3541192 -0.84314,0.7588269 V 10.598588 h -5.48042 V -7.4952194 h 5.48042 v 1.5513795 q 1.29843,-0.8768667 2.68118,-1.3996141 1.38276,-0.5227475 2.66433,-0.5227475 0.70824,0 1.43334,0.1686283 0.7251,0.1517653 1.38275,0.4384333 0.67451,0.2866679 1.23099,0.7251013 0.57333,0.4215705 0.96118,0.944318 0.62392,-0.5058847 1.36589,-0.9274552 0.75882,-0.4215705 1.56824,-0.7082385 0.82628,-0.3035307 1.66942,-0.4721589 0.86,-0.1686283 1.70314,-0.1686283 1.16354,0 2.19217,0.4552962 1.04549,0.4384333 1.82118,1.2141231 0.79256,0.7756898 1.24785,1.8211847 0.4553,1.0454948 0.4553,2.2427551 V 10.598588 h -5.54787 z" />
      <path
         inkscape:connector-curvature="0"
         id="path1798"
         style="font-style:normal;font-variant:normal;font-weight:normal;font-stretch:normal;font-size:34.53505707px;line-height:1.25;font-family:'Tamil MN';-inkscape-font-specification:'Tamil MN';letter-spacing:0px;word-spacing:0px;fill:#ffffff;fill-opacity:1;stroke:none;stroke-width:0.18500924"
         d="m 301.26692,-1.694409 q 0,-0.6070616 -0.15176,-1.1466719 -0.13491,-0.5396102 -0.40471,-0.9443179 -0.25294,-0.4047077 -0.60706,-0.6407872 -0.35412,-0.2360795 -0.77569,-0.2360795 -0.47216,0 -0.99491,0.1686282 -0.50588,0.1517654 -1.01177,0.4215705 -0.48902,0.2698052 -0.94432,0.6239244 -0.45529,0.3541192 -0.77569,0.7588269 V 10.598588 h -5.46355 V -1.694409 q 0,-0.6070616 -0.16863,-1.1466719 -0.15176,-0.5396102 -0.42157,-0.9443179 -0.26981,-0.4047077 -0.62392,-0.6407872 -0.35412,-0.2360795 -0.72511,-0.2360795 -0.43843,0 -0.94431,0.1686282 -0.50589,0.1517654 -1.01177,0.4215705 -0.48902,0.2698052 -0.96118,0.6239244 -0.47216,0.3541192 -0.84314,0.7588269 V 10.598588 h -5.48042 V -7.4952194 h 5.48042 v 1.5513795 q 1.29843,-0.8768667 2.68118,-1.3996141 1.38276,-0.5227475 2.66433,-0.5227475 0.70824,0 1.43334,0.1686283 0.7251,0.1517653 1.38275,0.4384333 0.67451,0.2866679 1.23099,0.7251013 0.57333,0.4215705 0.96118,0.944318 0.62392,-0.5058847 1.36589,-0.9274552 0.75882,-0.4215705 1.56824,-0.7082385 0.82628,-0.3035307 1.66942,-0.4721589 0.86,-0.1686283 1.70314,-0.1686283 1.16354,0 2.19217,0.4552962 1.04549,0.4384333 1.82118,1.2141231 0.79256,0.7756898 1.24785,1.8211847 0.4553,1.0454948 0.4553,2.2427551 V 10.598588 h -5.54787 z" />
      <path
         inkscape:connector-curvature="0"
         style="font-style:normal;font-variant:normal;font-weight:normal;font-stretch:normal;font-size:34.53505707px;line-height:1.25;font-family:'Tamil MN';-inkscape-font-specification:'Tamil MN';letter-spacing:0px;word-spacing:0px;fill:#ffffff;fill-opacity:1;stroke:none;stroke-width:0.18500924"
         d="m 311.43521,-6.5171758 5.48041,-1.5176539 V 10.598588 h -5.48041 z"
         id="path1871" />
      <path
         inkscape:connector-curvature="0"
         style="font-style:normal;font-variant:normal;font-weight:normal;font-stretch:normal;font-size:34.53505707px;line-height:1.25;font-family:'Tamil MN';-inkscape-font-specification:'Tamil MN';letter-spacing:0px;word-spacing:0px;fill:#ffffff;fill-opacity:1;stroke:none;stroke-width:0.18500924"
         d="m 311.19913,-13.279167 q 0,-0.556473 0.21921,-1.045494 0.23608,-0.489022 0.64079,-0.843141 0.40471,-0.370983 0.94432,-0.573336 0.53961,-0.219217 1.14667,-0.219217 0.60706,0 1.14667,0.219217 0.53961,0.202353 0.94432,0.573336 0.40471,0.354119 0.64079,0.843141 0.23608,0.489021 0.23608,1.045494 0,0.556473 -0.23608,1.045495 -0.23608,0.489022 -0.64079,0.843141 -0.40471,0.354119 -0.94432,0.573336 -0.53961,0.202354 -1.14667,0.202354 -0.60706,0 -1.14667,-0.202354 -0.53961,-0.219217 -0.94432,-0.573336 -0.40471,-0.354119 -0.64079,-0.843141 -0.21921,-0.489022 -0.21921,-1.045495 z"
         id="path1800" />
      <path
         inkscape:connector-curvature="0"
         id="path1802"
         style="font-style:normal;font-variant:normal;font-weight:normal;font-stretch:normal;font-size:34.53505707px;line-height:1.25;font-family:'Tamil MN';-inkscape-font-specification:'Tamil MN';letter-spacing:0px;word-spacing:0px;fill:#ffffff;fill-opacity:1;stroke:none;stroke-width:0.18500924"
         d="m 332.66549,-1.795586 q 0,-0.6913756 -0.15177,-1.2309859 -0.15176,-0.5396102 -0.40471,-0.8937295 -0.25294,-0.370982 -0.59019,-0.5564731 -0.3204,-0.185491 -0.67452,-0.185491 -0.35412,0 -0.82628,0.1517654 -0.45529,0.1349026 -0.96118,0.4047077 -0.50588,0.2529423 -1.02863,0.6239244 -0.52275,0.370982 -1.01177,0.8262782 V 10.598588 H 321.5023 V -7.4952194 h 5.51414 v 1.416477 q 1.26471,-0.9274552 2.71492,-1.3490257 1.4502,-0.4384334 2.9004,-0.4384334 1.11295,0 2.10785,0.4384334 1.01177,0.4215705 1.75374,1.1803974 0.75882,0.7419642 1.19726,1.7537334 0.45529,0.9949064 0.45529,2.1415783 v 12.950647 h -5.48041 z" />
      <path
         inkscape:connector-curvature="0"
         id="path1804"
         style="font-style:normal;font-variant:normal;font-weight:normal;font-stretch:normal;font-size:34.53505707px;line-height:1.25;font-family:'Tamil MN';-inkscape-font-specification:'Tamil MN';letter-spacing:0px;word-spacing:0px;fill:#ffffff;fill-opacity:1;stroke:none;stroke-width:0.18500924"
         d="m 362.37778,-6.2979591 v 1.9054987 h -3.32197 q 0.43843,0.6745129 0.70823,1.4502026 0.26981,0.7756898 0.26981,1.6862821 0,1.5007911 -0.69138,2.6811885 -0.67451,1.1803975 -1.90549,1.9898129 -1.23099,0.8094154 -2.951,1.2478487 -1.70314,0.4215705 -3.77727,0.4215705 -0.5902,0 -1.23099,-0.067451 -0.64078,-0.084314 -1.16353,-0.1854911 -0.35412,0.286668 -0.57334,0.6913757 -0.20235,0.3878449 -0.20235,0.8262782 0,0.1349026 0.0675,0.2529419 0.0843,0.11804 0.37098,0.23608 0.28667,0.101177 0.82628,0.202354 0.55647,0.08431 1.48393,0.168628 0.92745,0.08431 2.31021,0.168628 1.39961,0.06745 3.3557,0.134903 1.80432,0.06745 3.0353,0.387844 1.23099,0.303531 1.97295,0.826279 0.75883,0.505884 1.07922,1.214123 0.33726,0.6913754 0.33726,1.5513794 0,1.517654 -0.80941,2.74864 -0.80942,1.230986 -2.32707,2.09099 -1.51766,0.860004 -3.70982,1.332163 -2.19217,0.472159 -4.94081,0.472159 -2.47884,0 -4.33375,-0.269805 -1.8549,-0.252943 -3.10275,-0.741965 -1.23099,-0.472159 -1.85491,-1.146671 -0.60707,-0.674513 -0.60707,-1.500791 0,-0.607062 0.35412,-1.197261 0.35412,-0.590198 0.9106,-1.180397 0.57333,-0.573336 1.28157,-1.129809 0.7251,-0.556473 1.46706,-1.1129464 -1.04549,-0.35412 -1.68628,-0.876867 -0.62392,-0.53961 -0.62392,-1.214123 0,-0.472159 0.28667,-0.978044 0.28667,-0.5058842 0.77569,-0.994906 0.50588,-0.4890218 1.16353,-0.9274551 0.65765,-0.4384334 1.41648,-0.7756898 -0.89373,-0.4047077 -1.60197,-0.8937295 -0.70824,-0.4890218 -1.21412,-1.1129462 -0.48902,-0.6239243 -0.75883,-1.3996141 -0.2698,-0.7756898 -0.2698,-1.7537334 0,-1.5345167 0.67451,-2.7317769 0.69137,-1.1972603 1.88863,-2.0235385 1.19726,-0.8262783 2.81609,-1.2478488 1.6357,-0.4215705 3.52433,-0.4215705 0.89373,0 1.75374,0.1011769 0.87686,0.084314 1.63569,0.2529423 0.75883,0.1686282 1.34903,0.3878449 0.60706,0.2023539 0.96118,0.4552962 z M 355.2954,10.817804 q -1.23099,0 -2.46197,-0.05059 -1.23099,-0.03373 -2.34394,-0.101177 -1.09608,-0.06745 -1.98981,-0.134903 -0.89373,-0.08431 -1.4502,-0.151765 -0.5902,0.472159 -0.91059,1.146672 -0.30354,0.691376 -0.30354,1.349026 0,0.505884 0.38785,0.96118 0.38784,0.472159 1.16353,0.826279 0.77569,0.354119 1.92237,0.556473 1.16353,0.219216 2.69805,0.219216 1.66942,0 2.98472,-0.252942 1.3153,-0.236079 2.22589,-0.623924 0.92745,-0.387845 1.39961,-0.876867 0.48902,-0.489022 0.48902,-0.978044 0,-0.489021 -0.2698,-0.860004 -0.26981,-0.354119 -0.77569,-0.590198 -0.48902,-0.219217 -1.19726,-0.337257 -0.69138,-0.101177 -1.56824,-0.101177 z m -3.96277,-7.1666988 q 0.60707,0 1.16354,-0.3372564 0.57333,-0.3372565 1.01177,-0.9105924 0.45529,-0.5733359 0.70824,-1.2984372 0.2698,-0.7419641 0.2698,-1.5345167 0,-1.1635346 -0.30353,-2.1921667 -0.30353,-1.028632 -0.82628,-1.787459 -0.52274,-0.7756897 -1.21412,-1.2141231 -0.69138,-0.4552961 -1.46707,-0.4552961 -0.74196,0 -1.26471,0.3541192 -0.52274,0.3541192 -0.87686,0.9611808 -0.33726,0.5901987 -0.50589,1.3827513 -0.15176,0.7925526 -0.15176,1.6862821 0,1.0792205 0.23608,2.0572641 0.25294,0.9611808 0.70823,1.7031449 0.4553,0.7251013 1.09609,1.1635347 0.64078,0.4215705 1.41647,0.4215705 z" />
      <path
         inkscape:connector-curvature="0"
         style="font-style:normal;font-variant:normal;font-weight:normal;font-stretch:normal;font-size:34.53505707px;line-height:1.25;font-family:'Tamil MN';-inkscape-font-specification:'Tamil MN';letter-spacing:0px;word-spacing:0px;fill:#ffffff;fill-opacity:1;stroke:none;stroke-width:0.18500924"
         d="m 376.20529,-6.5171758 5.48041,-1.5176539 V 10.598588 h -5.48041 z"
         id="path1867" />
      <path
         inkscape:connector-curvature="0"
         style="font-style:normal;font-variant:normal;font-weight:normal;font-stretch:normal;font-size:34.53505707px;line-height:1.25;font-family:'Tamil MN';-inkscape-font-specification:'Tamil MN';letter-spacing:0px;word-spacing:0px;fill:#ffffff;fill-opacity:1;stroke:none;stroke-width:0.18500924"
         d="m 375.96921,-13.279167 q 0,-0.556473 0.21921,-1.045494 0.23608,-0.489022 0.64079,-0.843141 0.40471,-0.370983 0.94432,-0.573336 0.53961,-0.219217 1.14667,-0.219217 0.60706,0 1.14667,0.219217 0.53961,0.202353 0.94432,0.573336 0.40471,0.354119 0.64079,0.843141 0.23608,0.489021 0.23608,1.045494 0,0.556473 -0.23608,1.045495 -0.23608,0.489022 -0.64079,0.843141 -0.40471,0.354119 -0.94432,0.573336 -0.53961,0.202354 -1.14667,0.202354 -0.60706,0 -1.14667,-0.202354 -0.53961,-0.219217 -0.94432,-0.573336 -0.40471,-0.354119 -0.64079,-0.843141 -0.21921,-0.489022 -0.21921,-1.045495 z"
         id="path1806" />
      <path
         inkscape:connector-curvature="0"
         id="path1808"
         style="font-style:normal;font-variant:normal;font-weight:normal;font-stretch:normal;font-size:34.53505707px;line-height:1.25;font-family:'Tamil MN';-inkscape-font-specification:'Tamil MN';letter-spacing:0px;word-spacing:0px;fill:#ffffff;fill-opacity:1;stroke:none;stroke-width:0.18500924"
         d="m 397.43557,-1.795586 q 0,-0.6913756 -0.15177,-1.2309859 -0.15176,-0.5396102 -0.40471,-0.8937295 -0.25294,-0.370982 -0.59019,-0.5564731 -0.3204,-0.185491 -0.67452,-0.185491 -0.35412,0 -0.82628,0.1517654 -0.45529,0.1349026 -0.96118,0.4047077 -0.50588,0.2529423 -1.02863,0.6239244 -0.52275,0.370982 -1.01177,0.8262782 V 10.598588 h -5.51414 V -7.4952194 h 5.51414 v 1.416477 q 1.26471,-0.9274552 2.71492,-1.3490257 1.4502,-0.4384334 2.9004,-0.4384334 1.11295,0 2.10785,0.4384334 1.01177,0.4215705 1.75374,1.1803974 0.75882,0.7419642 1.19726,1.7537334 0.45529,0.9949064 0.45529,2.1415783 v 12.950647 h -5.48041 z" />
      <path
         inkscape:connector-curvature="0"
         style="font-style:normal;font-variant:normal;font-weight:normal;font-stretch:normal;font-size:34.53505707px;line-height:1.25;font-family:'Tamil MN';-inkscape-font-specification:'Tamil MN';letter-spacing:0px;word-spacing:0px;fill:#ffffff;fill-opacity:1;stroke:none;stroke-width:0.18500924"
         d="m 422.34197,10.598588 q 0,2.411383 -0.55647,3.878449 -0.53961,1.483928 -1.53452,2.293343 -0.9949,0.826278 -2.39452,1.096084 -1.39961,0.286667 -3.10276,0.286667 -1.14667,0 -2.0404,-0.202353 -0.89373,-0.185491 -1.50079,-0.522748 -0.60706,-0.337256 -0.91059,-0.792552 -0.32039,-0.438434 -0.32039,-0.927456 0,-0.860003 0.67451,-1.433339 0.67451,-0.573336 1.83805,-0.573336 0.43843,0 0.79255,0.134902 0.33725,0.134903 0.60706,0.337257 0.2698,0.219216 0.48902,0.455296 0.20236,0.252942 0.35412,0.472159 0.38785,0.505885 0.64079,0.674513 0.2698,0.168628 0.48902,0.168628 0.23608,0 0.42157,-0.11804 0.18549,-0.11804 0.30353,-0.42157 0.11804,-0.303531 0.16863,-0.809416 0.0675,-0.505884 0.0675,-1.298437 V -6.5171758 l 5.51414,-1.5176539 z"
         id="path1851" />
      <path
         inkscape:connector-curvature="0"
         id="path1812"
         style="font-style:normal;font-variant:normal;font-weight:normal;font-stretch:normal;font-size:34.53505707px;line-height:1.25;font-family:'Tamil MN';-inkscape-font-specification:'Tamil MN';letter-spacing:0px;word-spacing:0px;fill:#ffffff;fill-opacity:1;stroke:none;stroke-width:0.18500924"
         d="M 432.20672,-7.4952194 V 5.2530732 q 0,0.5396102 0.20235,1.0117692 0.21922,0.4552962 0.57334,0.7925522 0.37098,0.337257 0.84314,0.539611 0.48902,0.202353 1.02863,0.202353 0.30353,0 0.69137,-0.168628 0.38785,-0.168628 0.77569,-0.472159 0.40471,-0.30353 0.77569,-0.7082382 0.38785,-0.4047077 0.69138,-0.8937295 V -7.4952194 h 5.49728 V 10.598588 h -5.49728 V 8.9123056 q -1.07922,0.927455 -2.31021,1.4839284 -1.21412,0.53961 -2.37766,0.53961 -1.34902,0 -2.51256,-0.438433 -1.16353,-0.455296 -2.02353,-1.2141234 -0.86001,-0.77569 -1.34903,-1.804322 -0.48902,-1.045495 -0.48902,-2.2258924 V -7.4952194 Z" />
      <path
         inkscape:connector-curvature="0"
         id="path1814"
         style="font-style:normal;font-variant:normal;font-weight:normal;font-stretch:normal;font-size:34.53505707px;line-height:1.25;font-family:'Tamil MN';-inkscape-font-specification:'Tamil MN';letter-spacing:0px;word-spacing:0px;fill:#ffffff;fill-opacity:1;stroke:none;stroke-width:0.18500924"
         d="m 453.11661,10.598588 h -5.44669 v -25.378546 l 5.44669,-1.517653 z" />
      <path
         inkscape:connector-curvature="0"
         style="font-style:normal;font-variant:normal;font-weight:normal;font-stretch:normal;font-size:34.53505707px;line-height:1.25;font-family:'Tamil MN';-inkscape-font-specification:'Tamil MN';letter-spacing:0px;word-spacing:0px;fill:#ffffff;fill-opacity:1;stroke:none;stroke-width:0.18500924"
         d="m 457.90566,-6.5171758 5.48042,-1.5176539 V 10.598588 h -5.48042 z"
         id="path1855" />
      <path
         inkscape:connector-curvature="0"
         id="path1818"
         style="font-style:normal;font-variant:normal;font-weight:normal;font-stretch:normal;font-size:34.53505707px;line-height:1.25;font-family:'Tamil MN';-inkscape-font-specification:'Tamil MN';letter-spacing:0px;word-spacing:0px;fill:#ffffff;fill-opacity:1;stroke:none;stroke-width:0.18500924"
         d="m 476.94381,1.2397218 q -0.79255,0.3372564 -1.60197,0.7925526 -0.80941,0.4384333 -1.46706,0.9780436 -0.65765,0.5227474 -1.07922,1.129809 -0.40471,0.5901987 -0.40471,1.2478487 0,0.5227475 0.1349,0.9949064 0.1349,0.4552965 0.37098,0.8094155 0.23608,0.337256 0.52275,0.53961 0.30353,0.202354 0.64079,0.202354 0.65765,0 1.34902,-0.404708 0.70824,-0.42157 1.53452,-1.0454945 z m 5.51414,9.3588662 h -5.51414 V 9.1483846 q -0.4553,0.387845 -0.89373,0.708239 -0.43843,0.3203934 -0.97804,0.5733364 -0.52275,0.236079 -1.19726,0.370982 -0.67452,0.134902 -1.60197,0.134902 -1.24785,0 -2.25962,-0.354119 -0.99491,-0.354119 -1.70314,-0.9780444 -0.69138,-0.640787 -1.06236,-1.500791 -0.37098,-0.860004 -0.37098,-1.85491 0,-1.0454949 0.38784,-1.8717731 0.40471,-0.8431411 1.07922,-1.5176539 0.69138,-0.6745128 1.60197,-1.2141231 0.92745,-0.5396103 1.97295,-0.9780436 1.06236,-0.4384334 2.19217,-0.8094154 1.1298,-0.3709821 2.22589,-0.7251013 l 0.60706,-0.1349026 v -1.8043218 q 0,-0.8600039 -0.18549,-1.4670654 -0.16863,-0.6070616 -0.48902,-0.9780436 -0.30353,-0.3878449 -0.75883,-0.5564731 -0.43843,-0.1686282 -0.99491,-0.1686282 -0.65765,0 -1.09608,0.1686282 -0.43843,0.1686282 -0.70824,0.472159 -0.2698,0.2866679 -0.38784,0.6745128 -0.11804,0.3878449 -0.11804,0.8262782 0,0.5227475 -0.11804,0.9949064 -0.10118,0.472159 -0.38785,0.8431411 -0.2698,0.3541192 -0.75882,0.5733359 -0.47216,0.2192167 -1.23099,0.2192167 -0.57334,0 -1.06236,-0.1686282 -0.47216,-0.1854911 -0.80941,-0.4890218 -0.33726,-0.3203936 -0.53961,-0.7419642 -0.18549,-0.4384333 -0.18549,-0.9274551 0,-0.944318 0.64078,-1.7368705 0.64079,-0.8094154 1.72001,-1.3996142 1.09608,-0.5901987 2.51256,-0.9105923 1.43334,-0.3372564 3.01845,-0.3372564 1.93922,0 3.33883,0.3541192 1.41648,0.3541193 2.32707,0.9949064 0.9106,0.6407872 1.34903,1.5513796 0.43843,0.9105923 0.43843,2.0404013 z" />
    </g>
  </g>
</svg>
